<svg viewBox="0 0 700 250" xmlns="http://www.w3.org/2000/svg" role="img">
<title>RBF kernel Gram matrix at three bandwidths</title>
<desc>Three 3 by 3 heatmaps of the RBF kernel Gram matrix K_ij = exp(-||xi - xj||^2 / (2 sigma^2)) for the running example. At sigma = 0.3 it is almost the identity (every point is only similar to itself). At sigma = 1 the entries are 0.61, 0.08 and 0.37 off the diagonal. At sigma = 5 every entry is above 0.9 and the matrix is almost all ones.</desc>
<style>
  text{font-family:ui-sans-serif,-apple-system,"Segoe UI",sans-serif}
  .lab{font-size:12px;fill:#57564f} .hd{font-size:13px;font-weight:500;fill:#1a1a19}
  .v{font-size:13px;fill:#1a1a19}
  .cell{fill:#7c3aed} .frame{fill:none;stroke:#c3c2b7;stroke-width:0.8}
  @media (prefers-color-scheme: dark){
    .lab{fill:#b6b4ab} .hd,.v{fill:#eceae3} .cell{fill:#b48cff} .frame{stroke:#4a4844}
  }
</style>
<text x="40" y="30" class="hd">σ = 0.3: ≈ identity</text>
<rect x="40" y="50" width="48" height="48" class="cell" opacity="0.64"/>
<rect x="40" y="50" width="48" height="48" class="frame"/>
<text x="64.0" y="79.0" class="v" text-anchor="middle">1.00</text>
<rect x="88" y="50" width="48" height="48" class="cell" opacity="0.04"/>
<rect x="88" y="50" width="48" height="48" class="frame"/>
<text x="112.0" y="79.0" class="v" text-anchor="middle">0.00</text>
<rect x="136" y="50" width="48" height="48" class="cell" opacity="0.04"/>
<rect x="136" y="50" width="48" height="48" class="frame"/>
<text x="160.0" y="79.0" class="v" text-anchor="middle">0.00</text>
<rect x="40" y="98" width="48" height="48" class="cell" opacity="0.04"/>
<rect x="40" y="98" width="48" height="48" class="frame"/>
<text x="64.0" y="127.0" class="v" text-anchor="middle">0.00</text>
<rect x="88" y="98" width="48" height="48" class="cell" opacity="0.64"/>
<rect x="88" y="98" width="48" height="48" class="frame"/>
<text x="112.0" y="127.0" class="v" text-anchor="middle">1.00</text>
<rect x="136" y="98" width="48" height="48" class="cell" opacity="0.04"/>
<rect x="136" y="98" width="48" height="48" class="frame"/>
<text x="160.0" y="127.0" class="v" text-anchor="middle">0.00</text>
<rect x="40" y="146" width="48" height="48" class="cell" opacity="0.04"/>
<rect x="40" y="146" width="48" height="48" class="frame"/>
<text x="64.0" y="175.0" class="v" text-anchor="middle">0.00</text>
<rect x="88" y="146" width="48" height="48" class="cell" opacity="0.04"/>
<rect x="88" y="146" width="48" height="48" class="frame"/>
<text x="112.0" y="175.0" class="v" text-anchor="middle">0.00</text>
<rect x="136" y="146" width="48" height="48" class="cell" opacity="0.64"/>
<rect x="136" y="146" width="48" height="48" class="frame"/>
<text x="160.0" y="175.0" class="v" text-anchor="middle">1.00</text>
<text x="265" y="30" class="hd">σ = 1: informative</text>
<rect x="265" y="50" width="48" height="48" class="cell" opacity="0.64"/>
<rect x="265" y="50" width="48" height="48" class="frame"/>
<text x="289.0" y="79.0" class="v" text-anchor="middle">1.00</text>
<rect x="313" y="50" width="48" height="48" class="cell" opacity="0.40"/>
<rect x="313" y="50" width="48" height="48" class="frame"/>
<text x="337.0" y="79.0" class="v" text-anchor="middle">0.61</text>
<rect x="361" y="50" width="48" height="48" class="cell" opacity="0.09"/>
<rect x="361" y="50" width="48" height="48" class="frame"/>
<text x="385.0" y="79.0" class="v" text-anchor="middle">0.08</text>
<rect x="265" y="98" width="48" height="48" class="cell" opacity="0.40"/>
<rect x="265" y="98" width="48" height="48" class="frame"/>
<text x="289.0" y="127.0" class="v" text-anchor="middle">0.61</text>
<rect x="313" y="98" width="48" height="48" class="cell" opacity="0.64"/>
<rect x="313" y="98" width="48" height="48" class="frame"/>
<text x="337.0" y="127.0" class="v" text-anchor="middle">1.00</text>
<rect x="361" y="98" width="48" height="48" class="cell" opacity="0.26"/>
<rect x="361" y="98" width="48" height="48" class="frame"/>
<text x="385.0" y="127.0" class="v" text-anchor="middle">0.37</text>
<rect x="265" y="146" width="48" height="48" class="cell" opacity="0.09"/>
<rect x="265" y="146" width="48" height="48" class="frame"/>
<text x="289.0" y="175.0" class="v" text-anchor="middle">0.08</text>
<rect x="313" y="146" width="48" height="48" class="cell" opacity="0.26"/>
<rect x="313" y="146" width="48" height="48" class="frame"/>
<text x="337.0" y="175.0" class="v" text-anchor="middle">0.37</text>
<rect x="361" y="146" width="48" height="48" class="cell" opacity="0.64"/>
<rect x="361" y="146" width="48" height="48" class="frame"/>
<text x="385.0" y="175.0" class="v" text-anchor="middle">1.00</text>
<text x="490" y="30" class="hd">σ = 5: ≈ all ones</text>
<rect x="490" y="50" width="48" height="48" class="cell" opacity="0.64"/>
<rect x="490" y="50" width="48" height="48" class="frame"/>
<text x="514.0" y="79.0" class="v" text-anchor="middle">1.00</text>
<rect x="538" y="50" width="48" height="48" class="cell" opacity="0.63"/>
<rect x="538" y="50" width="48" height="48" class="frame"/>
<text x="562.0" y="79.0" class="v" text-anchor="middle">0.98</text>
<rect x="586" y="50" width="48" height="48" class="cell" opacity="0.58"/>
<rect x="586" y="50" width="48" height="48" class="frame"/>
<text x="610.0" y="79.0" class="v" text-anchor="middle">0.90</text>
<rect x="490" y="98" width="48" height="48" class="cell" opacity="0.63"/>
<rect x="490" y="98" width="48" height="48" class="frame"/>
<text x="514.0" y="127.0" class="v" text-anchor="middle">0.98</text>
<rect x="538" y="98" width="48" height="48" class="cell" opacity="0.64"/>
<rect x="538" y="98" width="48" height="48" class="frame"/>
<text x="562.0" y="127.0" class="v" text-anchor="middle">1.00</text>
<rect x="586" y="98" width="48" height="48" class="cell" opacity="0.62"/>
<rect x="586" y="98" width="48" height="48" class="frame"/>
<text x="610.0" y="127.0" class="v" text-anchor="middle">0.96</text>
<rect x="490" y="146" width="48" height="48" class="cell" opacity="0.58"/>
<rect x="490" y="146" width="48" height="48" class="frame"/>
<text x="514.0" y="175.0" class="v" text-anchor="middle">0.90</text>
<rect x="538" y="146" width="48" height="48" class="cell" opacity="0.62"/>
<rect x="538" y="146" width="48" height="48" class="frame"/>
<text x="562.0" y="175.0" class="v" text-anchor="middle">0.96</text>
<rect x="586" y="146" width="48" height="48" class="cell" opacity="0.64"/>
<rect x="586" y="146" width="48" height="48" class="frame"/>
<text x="610.0" y="175.0" class="v" text-anchor="middle">1.00</text>
<text x="40" y="226" class="lab">K = exp(−‖xᵢ − xⱼ‖² / 2σ²) for the same three points. Too small a σ and no two points look alike;</text>
<text x="40" y="243" class="lab">too large and they all do. Either extreme throws the geometry away.</text>
</svg>