<svg viewBox="0 0 700 394" xmlns="http://www.w3.org/2000/svg" role="img">
<title>TTA-Flow: histogram matching then ODE to the source manifold</title>
<desc>Two panels from a one-dimensional per-pixel toy. Left: flow-matching ODE trajectories over time t from 0 to 1, with intensity on the vertical axis. Grey curves start from Gaussian noise at t = 0 and fan out into the two modes of the clean source intensity distribution (dark background near 0.2, tissue near 0.75). A dashed vertical line marks the entry step s_target = 55 of 100. Orange curves start at that step from noisy test pixels after histogram matching and follow the same ODE to the modes. Right: the histogram-matching step as one-dimensional optimal transport. The empirical CDF of the noisy test image (orange) and the CDF of the average trajectory marginal at step 55 (grey) are plotted against intensity, and horizontal arrows carry a test intensity to the reference intensity with the same quantile, the monotone map F_ref⁻¹ ∘ F_test. In this toy 85 percent of pixels end in the correct mode; there is no data-fidelity term after entry.</desc>
<style>
  text{font-family:ui-sans-serif,-apple-system,"Segoe UI",sans-serif;font-weight:400}
  .lab{font-size:11px;fill:#57564f} .hd{font-size:13px;font-weight:500;fill:#1a1a19}
  .sub{font-size:11.5px;fill:#57564f} .big{font-size:12.5px;font-weight:500;fill:#1a1a19}
  .t1{fill:#2f6fb5} .t2{fill:#c8702f}
  .c1{fill:#2f6fb5;stroke:none;opacity:0.5} .c2{fill:#c8702f;stroke:none;opacity:0.5}
  .f1{fill:#2f6fb5;stroke:none} .f2{fill:#c8702f;stroke:none} .fg{fill:#c3c2b7;stroke:none}
  .m1{fill:#2f6fb5;stroke:#fbfaf6;stroke-width:1.4} .m2{fill:#c8702f;stroke:#fbfaf6;stroke-width:1.4}
  .pt{fill:#1a1a19;stroke:#fbfaf6;stroke-width:1.2}
  .arr{stroke:#8a8880;stroke-width:1;fill:none}
  .box{fill:none;stroke:#e2e1da;stroke-width:1}
  .ax{stroke:#c3c2b7;stroke-width:0.8;fill:none}
  .gd{stroke:#e2e1da;stroke-width:0.6;fill:none;stroke-dasharray:3 3}
  .l1{fill:none;stroke:#2f6fb5;stroke-width:2} .l2{fill:none;stroke:#c8702f;stroke-width:2}
  .l1t{fill:none;stroke:#2f6fb5;stroke-width:1.1} .l2t{fill:none;stroke:#c8702f;stroke-width:1.1}
  .lg{fill:none;stroke:#8a8880;stroke-width:1.2} .lgt{fill:none;stroke:#c3c2b7;stroke-width:0.8}
  .ell{fill:none;stroke:#8a8880;stroke-width:1.2}
  .eucl{fill:none;stroke:#8a8880;stroke-width:1.2;stroke-dasharray:4 3}
  .maha{fill:none;stroke:#2f6fb5;stroke-width:1.3;stroke-dasharray:4 3}
  .vec{stroke:#1a1a19;stroke-width:1.6;fill:none}
  .op{stroke:#1a1a19;stroke-width:1.2;stroke-dasharray:4 3;fill:none}
  .ah{fill:#8a8880;stroke:none} .ahk{fill:#1a1a19;stroke:none}
  .hl{paint-order:stroke;stroke:#fbfaf6;stroke-width:3.5;stroke-linejoin:round}
  @media (prefers-color-scheme: dark){
    .lab{fill:#b6b4ab} .hd{fill:#eceae3} .sub{fill:#b6b4ab} .big{fill:#eceae3}
    .t1{fill:#7fb2e8} .t2{fill:#e09a5f}
    .box{stroke:#33312e} .ax{stroke:#4a4844} .gd{stroke:#33312e}
    .c1{fill:#7fb2e8} .c2{fill:#e09a5f} .f1{fill:#7fb2e8} .f2{fill:#e09a5f} .fg{fill:#4a4844}
    .m1{fill:#7fb2e8;stroke:#1c1b19} .m2{fill:#e09a5f;stroke:#1c1b19}
    .pt{fill:#eceae3;stroke:#1c1b19}
    .arr{stroke:#85837b} .l1{stroke:#7fb2e8} .l2{stroke:#e09a5f} .l1t{stroke:#7fb2e8} .l2t{stroke:#e09a5f}
    .lg{stroke:#85837b} .lgt{stroke:#4a4844}
    .ell{stroke:#85837b} .eucl{stroke:#85837b} .maha{stroke:#7fb2e8}
    .vec{stroke:#eceae3} .op{stroke:#eceae3} .ah{fill:#85837b} .ahk{fill:#eceae3}
    .hl{stroke:#1c1b19}
  }
</style>
<text class="hd" x="26.0" y="26.0">A noisy scan is treated as a mid-trajectory state: match its histogram, then finish the flow</text>
<text class="sub" x="26.0" y="44.0">dz/dt = v_θ(z) = (x_θ(z) − z)/(1 − t);  entry state z_s = F_ref,s⁻¹ ∘ F_ζ(ζ), then Euler steps s → S</text>
<rect x="60.0" y="62.0" width="300.0" height="244.0" class="box"/>
<defs><clipPath id="c049"><rect x="60" y="62" width="300" height="244"/></clipPath></defs>
<g clip-path="url(#c049)">
<polyline class="lgt" points="60.0,208.3 63.0,207.9 66.0,207.5 69.0,207.1 72.0,206.7 75.0,206.3 78.0,205.9 81.0,205.5 84.0,205.1 87.0,204.6 90.0,204.2 93.0,203.8 96.0,203.4 99.0,203.0 102.0,202.6 105.0,202.2 108.0,201.8 111.0,201.4 114.0,201.0 117.0,200.6 120.0,200.1 123.0,199.7 126.0,199.3 129.0,198.9 132.0,198.5 135.0,198.1 138.0,197.7 141.0,197.3 144.0,196.9 147.0,196.5 150.0,196.1 153.0,195.7 156.0,195.3 159.0,194.9 162.0,194.4 165.0,194.0 168.0,193.6 171.0,193.2 174.0,192.8 177.0,192.4 180.0,192.0 183.0,191.6 186.0,191.2 189.0,190.8 192.0,190.4 195.0,190.0 198.0,189.6 201.0,189.2 204.0,188.8 207.0,188.5 210.0,188.1 213.0,187.7 216.0,187.3 219.0,186.9 222.0,186.5 225.0,186.1 228.0,185.8 231.0,185.4 234.0,185.0 237.0,184.7 240.0,184.3 243.0,184.0 246.0,183.6 249.0,183.3 252.0,183.0 255.0,182.6 258.0,182.3 261.0,182.0 264.0,181.8 267.0,181.5 270.0,181.2 273.0,181.0 276.0,180.8 279.0,180.7 282.0,180.5 285.0,180.4 288.0,180.4 291.0,180.3 294.0,180.4 297.0,180.4 300.0,180.6 303.0,180.7 306.0,180.9 309.0,181.2 312.0,181.4 315.0,181.7 318.0,182.0 321.0,182.3 324.0,182.5 327.0,182.8 330.0,183.0 333.0,183.2 336.0,183.3 339.0,183.5 342.0,183.6 345.0,183.7 348.0,183.7 351.0,183.7 354.0,183.6 357.0,183.4 360.0,183.2"/>
<polyline class="lgt" points="60.0,198.8 63.0,198.5 66.0,198.2 69.0,197.9 72.0,197.5 75.0,197.2 78.0,196.9 81.0,196.6 84.0,196.3 87.0,196.0 90.0,195.6 93.0,195.3 96.0,195.0 99.0,194.7 102.0,194.4 105.0,194.1 108.0,193.7 111.0,193.4 114.0,193.1 117.0,192.8 120.0,192.5 123.0,192.2 126.0,191.8 129.0,191.5 132.0,191.2 135.0,190.9 138.0,190.6 141.0,190.2 144.0,189.9 147.0,189.6 150.0,189.3 153.0,188.9 156.0,188.6 159.0,188.3 162.0,188.0 165.0,187.7 168.0,187.3 171.0,187.0 174.0,186.7 177.0,186.4 180.0,186.0 183.0,185.7 186.0,185.4 189.0,185.1 192.0,184.7 195.0,184.4 198.0,184.1 201.0,183.8 204.0,183.4 207.0,183.1 210.0,182.8 213.0,182.4 216.0,182.1 219.0,181.8 222.0,181.5 225.0,181.1 228.0,180.8 231.0,180.5 234.0,180.2 237.0,179.8 240.0,179.5 243.0,179.2 246.0,178.9 249.0,178.6 252.0,178.3 255.0,177.9 258.0,177.6 261.0,177.3 264.0,177.0 267.0,176.8 270.0,176.5 273.0,176.2 276.0,175.9 279.0,175.7 282.0,175.4 285.0,175.2 288.0,175.0 291.0,174.9 294.0,174.8 297.0,174.7 300.0,174.7 303.0,174.7 306.0,174.8 309.0,175.0 312.0,175.3 315.0,175.7 318.0,176.1 321.0,176.6 324.0,177.1 327.0,177.6 330.0,178.0 333.0,178.5 336.0,178.9 339.0,179.2 342.0,179.5 345.0,179.8 348.0,179.9 351.0,180.0 354.0,180.0 357.0,179.9 360.0,179.7"/>
<polyline class="lgt" points="60.0,121.5 63.0,121.9 66.0,122.4 69.0,122.8 72.0,123.3 75.0,123.7 78.0,124.2 81.0,124.6 84.0,125.1 87.0,125.5 90.0,126.0 93.0,126.4 96.0,126.8 99.0,127.3 102.0,127.7 105.0,128.1 108.0,128.6 111.0,129.0 114.0,129.4 117.0,129.8 120.0,130.2 123.0,130.6 126.0,131.0 129.0,131.4 132.0,131.8 135.0,132.2 138.0,132.6 141.0,133.0 144.0,133.3 147.0,133.7 150.0,134.1 153.0,134.4 156.0,134.8 159.0,135.1 162.0,135.5 165.0,135.8 168.0,136.1 171.0,136.5 174.0,136.8 177.0,137.1 180.0,137.4 183.0,137.7 186.0,137.9 189.0,138.2 192.0,138.5 195.0,138.7 198.0,139.0 201.0,139.2 204.0,139.4 207.0,139.6 210.0,139.8 213.0,140.0 216.0,140.1 219.0,140.3 222.0,140.4 225.0,140.5 228.0,140.6 231.0,140.7 234.0,140.7 237.0,140.8 240.0,140.8 243.0,140.8 246.0,140.8 249.0,140.7 252.0,140.7 255.0,140.6 258.0,140.5 261.0,140.3 264.0,140.2 267.0,140.0 270.0,139.9 273.0,139.7 276.0,139.5 279.0,139.3 282.0,139.0 285.0,138.8 288.0,138.6 291.0,138.3 294.0,138.0 297.0,137.8 300.0,137.5 303.0,137.2 306.0,136.9 309.0,136.6 312.0,136.3 315.0,136.0 318.0,135.6 321.0,135.3 324.0,134.9 327.0,134.5 330.0,134.1 333.0,133.6 336.0,133.2 339.0,132.7 342.0,132.1 345.0,131.6 348.0,131.0 351.0,130.3 354.0,129.7 357.0,128.9 360.0,128.2"/>
<polyline class="lgt" points="60.0,204.4 63.0,204.1 66.0,203.7 69.0,203.3 72.0,203.0 75.0,202.6 78.0,202.2 81.0,201.8 84.0,201.5 87.0,201.1 90.0,200.7 93.0,200.4 96.0,200.0 99.0,199.6 102.0,199.3 105.0,198.9 108.0,198.5 111.0,198.1 114.0,197.8 117.0,197.4 120.0,197.0 123.0,196.6 126.0,196.3 129.0,195.9 132.0,195.5 135.0,195.2 138.0,194.8 141.0,194.4 144.0,194.0 147.0,193.7 150.0,193.3 153.0,192.9 156.0,192.6 159.0,192.2 162.0,191.8 165.0,191.4 168.0,191.1 171.0,190.7 174.0,190.3 177.0,190.0 180.0,189.6 183.0,189.2 186.0,188.8 189.0,188.5 192.0,188.1 195.0,187.7 198.0,187.4 201.0,187.0 204.0,186.6 207.0,186.3 210.0,185.9 213.0,185.5 216.0,185.2 219.0,184.8 222.0,184.5 225.0,184.1 228.0,183.8 231.0,183.4 234.0,183.1 237.0,182.7 240.0,182.4 243.0,182.0 246.0,181.7 249.0,181.4 252.0,181.1 255.0,180.7 258.0,180.4 261.0,180.1 264.0,179.9 267.0,179.6 270.0,179.3 273.0,179.1 276.0,178.9 279.0,178.7 282.0,178.5 285.0,178.4 288.0,178.3 291.0,178.2 294.0,178.2 297.0,178.3 300.0,178.4 303.0,178.6 306.0,178.8 309.0,179.1 312.0,179.4 315.0,179.7 318.0,180.1 321.0,180.4 324.0,180.8 327.0,181.1 330.0,181.4 333.0,181.7 336.0,181.9 339.0,182.1 342.0,182.3 345.0,182.4 348.0,182.5 351.0,182.5 354.0,182.4 357.0,182.3 360.0,182.1"/>
<polyline class="lgt" points="60.0,129.5 63.0,129.9 66.0,130.2 69.0,130.6 72.0,131.0 75.0,131.4 78.0,131.7 81.0,132.1 84.0,132.5 87.0,132.8 90.0,133.2 93.0,133.5 96.0,133.9 99.0,134.3 102.0,134.6 105.0,135.0 108.0,135.3 111.0,135.6 114.0,136.0 117.0,136.3 120.0,136.7 123.0,137.0 126.0,137.3 129.0,137.6 132.0,138.0 135.0,138.3 138.0,138.6 141.0,138.9 144.0,139.2 147.0,139.5 150.0,139.8 153.0,140.1 156.0,140.4 159.0,140.6 162.0,140.9 165.0,141.2 168.0,141.4 171.0,141.7 174.0,141.9 177.0,142.2 180.0,142.4 183.0,142.6 186.0,142.9 189.0,143.1 192.0,143.3 195.0,143.4 198.0,143.6 201.0,143.8 204.0,143.9 207.0,144.1 210.0,144.2 213.0,144.3 216.0,144.4 219.0,144.5 222.0,144.6 225.0,144.7 228.0,144.7 231.0,144.7 234.0,144.7 237.0,144.7 240.0,144.7 243.0,144.6 246.0,144.5 249.0,144.4 252.0,144.3 255.0,144.2 258.0,144.0 261.0,143.8 264.0,143.6 267.0,143.4 270.0,143.1 273.0,142.9 276.0,142.6 279.0,142.3 282.0,142.0 285.0,141.7 288.0,141.3 291.0,141.0 294.0,140.6 297.0,140.3 300.0,139.9 303.0,139.5 306.0,139.2 309.0,138.8 312.0,138.4 315.0,138.0 318.0,137.5 321.0,137.1 324.0,136.7 327.0,136.2 330.0,135.7 333.0,135.2 336.0,134.7 339.0,134.2 342.0,133.6 345.0,133.0 348.0,132.4 351.0,131.7 354.0,131.0 357.0,130.3 360.0,129.5"/>
<polyline class="lgt" points="60.0,274.1 63.0,273.0 66.0,272.0 69.0,270.9 72.0,269.8 75.0,268.8 78.0,267.7 81.0,266.7 84.0,265.6 87.0,264.5 90.0,263.5 93.0,262.4 96.0,261.4 99.0,260.4 102.0,259.3 105.0,258.3 108.0,257.2 111.0,256.2 114.0,255.2 117.0,254.1 120.0,253.1 123.0,252.1 126.0,251.0 129.0,250.0 132.0,249.0 135.0,248.0 138.0,247.0 141.0,246.0 144.0,245.0 147.0,244.0 150.0,243.0 153.0,242.0 156.0,241.0 159.0,240.0 162.0,239.0 165.0,238.0 168.0,237.1 171.0,236.1 174.0,235.1 177.0,234.2 180.0,233.2 183.0,232.3 186.0,231.3 189.0,230.4 192.0,229.5 195.0,228.6 198.0,227.7 201.0,226.7 204.0,225.9 207.0,225.0 210.0,224.1 213.0,223.2 216.0,222.4 219.0,221.5 222.0,220.7 225.0,219.8 228.0,219.0 231.0,218.2 234.0,217.4 237.0,216.6 240.0,215.8 243.0,215.1 246.0,214.3 249.0,213.6 252.0,212.9 255.0,212.1 258.0,211.4 261.0,210.8 264.0,210.1 267.0,209.4 270.0,208.7 273.0,208.1 276.0,207.4 279.0,206.8 282.0,206.2 285.0,205.5 288.0,204.9 291.0,204.3 294.0,203.7 297.0,203.1 300.0,202.5 303.0,201.9 306.0,201.3 309.0,200.7 312.0,200.1 315.0,199.5 318.0,199.0 321.0,198.4 324.0,197.9 327.0,197.4 330.0,196.8 333.0,196.3 336.0,195.9 339.0,195.4 342.0,195.0 345.0,194.6 348.0,194.2 351.0,193.9 354.0,193.6 357.0,193.4 360.0,193.2"/>
<polyline class="lgt" points="60.0,370.1 63.0,368.0 66.0,366.0 69.0,364.0 72.0,362.0 75.0,360.0 78.0,357.9 81.0,355.9 84.0,353.9 87.0,351.9 90.0,350.0 93.0,348.0 96.0,346.0 99.0,344.0 102.0,342.0 105.0,340.1 108.0,338.1 111.0,336.1 114.0,334.2 117.0,332.2 120.0,330.3 123.0,328.4 126.0,326.4 129.0,324.5 132.0,322.6 135.0,320.7 138.0,318.8 141.0,316.9 144.0,315.0 147.0,313.1 150.0,311.2 153.0,309.3 156.0,307.5 159.0,305.6 162.0,303.8 165.0,301.9 168.0,300.1 171.0,298.2 174.0,296.4 177.0,294.6 180.0,292.8 183.0,291.0 186.0,289.2 189.0,287.4 192.0,285.6 195.0,283.8 198.0,282.1 201.0,280.3 204.0,278.5 207.0,276.8 210.0,275.1 213.0,273.3 216.0,271.6 219.0,269.9 222.0,268.1 225.0,266.4 228.0,264.7 231.0,263.0 234.0,261.3 237.0,259.6 240.0,258.0 243.0,256.3 246.0,254.6 249.0,252.9 252.0,251.3 255.0,249.6 258.0,247.9 261.0,246.3 264.0,244.6 267.0,243.0 270.0,241.3 273.0,239.7 276.0,238.1 279.0,236.5 282.0,234.8 285.0,233.2 288.0,231.6 291.0,230.0 294.0,228.5 297.0,226.9 300.0,225.3 303.0,223.8 306.0,222.3 309.0,220.8 312.0,219.3 315.0,217.8 318.0,216.4 321.0,215.0 324.0,213.6 327.0,212.3 330.0,211.0 333.0,209.8 336.0,208.7 339.0,207.6 342.0,206.6 345.0,205.8 348.0,205.0 351.0,204.4 354.0,203.9 357.0,203.6 360.0,203.4"/>
<polyline class="lgt" points="60.0,186.9 63.0,186.7 66.0,186.5 69.0,186.3 72.0,186.1 75.0,185.9 78.0,185.7 81.0,185.5 84.0,185.3 87.0,185.1 90.0,184.9 93.0,184.7 96.0,184.5 99.0,184.3 102.0,184.1 105.0,183.9 108.0,183.7 111.0,183.5 114.0,183.3 117.0,183.1 120.0,182.9 123.0,182.7 126.0,182.4 129.0,182.2 132.0,182.0 135.0,181.8 138.0,181.6 141.0,181.4 144.0,181.2 147.0,181.0 150.0,180.8 153.0,180.5 156.0,180.3 159.0,180.1 162.0,179.9 165.0,179.7 168.0,179.4 171.0,179.2 174.0,179.0 177.0,178.8 180.0,178.5 183.0,178.3 186.0,178.1 189.0,177.8 192.0,177.6 195.0,177.4 198.0,177.1 201.0,176.9 204.0,176.6 207.0,176.4 210.0,176.1 213.0,175.9 216.0,175.6 219.0,175.4 222.0,175.1 225.0,174.9 228.0,174.6 231.0,174.3 234.0,174.0 237.0,173.8 240.0,173.5 243.0,173.2 246.0,172.9 249.0,172.6 252.0,172.3 255.0,172.0 258.0,171.7 261.0,171.3 264.0,171.0 267.0,170.7 270.0,170.3 273.0,169.9 276.0,169.5 279.0,169.1 282.0,168.7 285.0,168.2 288.0,167.7 291.0,167.2 294.0,166.6 297.0,165.9 300.0,165.2 303.0,164.4 306.0,163.6 309.0,162.6 312.0,161.5 315.0,160.3 318.0,159.1 321.0,157.9 324.0,156.7 327.0,155.5 330.0,154.3 333.0,153.2 336.0,152.1 339.0,151.0 342.0,150.0 345.0,149.1 348.0,148.1 351.0,147.3 354.0,146.5 357.0,145.7 360.0,145.0"/>
<polyline class="lgt" points="60.0,213.7 63.0,213.2 66.0,212.7 69.0,212.3 72.0,211.8 75.0,211.3 78.0,210.9 81.0,210.4 84.0,210.0 87.0,209.5 90.0,209.0 93.0,208.6 96.0,208.1 99.0,207.7 102.0,207.2 105.0,206.7 108.0,206.3 111.0,205.8 114.0,205.4 117.0,204.9 120.0,204.4 123.0,204.0 126.0,203.5 129.0,203.1 132.0,202.6 135.0,202.1 138.0,201.7 141.0,201.2 144.0,200.8 147.0,200.3 150.0,199.9 153.0,199.4 156.0,199.0 159.0,198.5 162.0,198.1 165.0,197.6 168.0,197.2 171.0,196.7 174.0,196.3 177.0,195.8 180.0,195.4 183.0,194.9 186.0,194.5 189.0,194.0 192.0,193.6 195.0,193.2 198.0,192.7 201.0,192.3 204.0,191.9 207.0,191.4 210.0,191.0 213.0,190.6 216.0,190.2 219.0,189.7 222.0,189.3 225.0,188.9 228.0,188.5 231.0,188.1 234.0,187.7 237.0,187.3 240.0,187.0 243.0,186.6 246.0,186.2 249.0,185.9 252.0,185.5 255.0,185.2 258.0,184.9 261.0,184.6 264.0,184.3 267.0,184.1 270.0,183.8 273.0,183.6 276.0,183.4 279.0,183.3 282.0,183.1 285.0,183.1 288.0,183.0 291.0,183.0 294.0,183.0 297.0,183.1 300.0,183.2 303.0,183.3 306.0,183.5 309.0,183.6 312.0,183.8 315.0,184.0 318.0,184.2 321.0,184.3 324.0,184.5 327.0,184.6 330.0,184.7 333.0,184.9 336.0,184.9 339.0,185.0 342.0,185.1 345.0,185.1 348.0,185.0 351.0,185.0 354.0,184.9 357.0,184.7 360.0,184.5"/>
<polyline class="lgt" points="60.0,199.7 63.0,199.4 66.0,199.1 69.0,198.8 72.0,198.4 75.0,198.1 78.0,197.8 81.0,197.5 84.0,197.1 87.0,196.8 90.0,196.5 93.0,196.2 96.0,195.8 99.0,195.5 102.0,195.2 105.0,194.9 108.0,194.5 111.0,194.2 114.0,193.9 117.0,193.5 120.0,193.2 123.0,192.9 126.0,192.6 129.0,192.2 132.0,191.9 135.0,191.6 138.0,191.3 141.0,190.9 144.0,190.6 147.0,190.3 150.0,189.9 153.0,189.6 156.0,189.3 159.0,188.9 162.0,188.6 165.0,188.3 168.0,187.9 171.0,187.6 174.0,187.3 177.0,187.0 180.0,186.6 183.0,186.3 186.0,186.0 189.0,185.6 192.0,185.3 195.0,185.0 198.0,184.6 201.0,184.3 204.0,184.0 207.0,183.6 210.0,183.3 213.0,183.0 216.0,182.6 219.0,182.3 222.0,182.0 225.0,181.6 228.0,181.3 231.0,181.0 234.0,180.6 237.0,180.3 240.0,180.0 243.0,179.7 246.0,179.4 249.0,179.0 252.0,178.7 255.0,178.4 258.0,178.1 261.0,177.8 264.0,177.5 267.0,177.2 270.0,176.9 273.0,176.7 276.0,176.4 279.0,176.2 282.0,176.0 285.0,175.8 288.0,175.6 291.0,175.5 294.0,175.4 297.0,175.3 300.0,175.3 303.0,175.4 306.0,175.5 309.0,175.8 312.0,176.1 315.0,176.5 318.0,176.9 321.0,177.4 324.0,177.8 327.0,178.3 330.0,178.7 333.0,179.2 336.0,179.5 339.0,179.9 342.0,180.1 345.0,180.3 348.0,180.5 351.0,180.5 354.0,180.5 357.0,180.4 360.0,180.2"/>
<polyline class="lgt" points="60.0,265.0 63.0,264.0 66.0,263.1 69.0,262.1 72.0,261.1 75.0,260.2 78.0,259.2 81.0,258.2 84.0,257.2 87.0,256.3 90.0,255.3 93.0,254.4 96.0,253.4 99.0,252.4 102.0,251.5 105.0,250.5 108.0,249.6 111.0,248.6 114.0,247.7 117.0,246.7 120.0,245.8 123.0,244.8 126.0,243.9 129.0,243.0 132.0,242.0 135.0,241.1 138.0,240.2 141.0,239.2 144.0,238.3 147.0,237.4 150.0,236.5 153.0,235.6 156.0,234.7 159.0,233.8 162.0,232.9 165.0,232.0 168.0,231.1 171.0,230.2 174.0,229.3 177.0,228.4 180.0,227.6 183.0,226.7 186.0,225.8 189.0,225.0 192.0,224.1 195.0,223.3 198.0,222.4 201.0,221.6 204.0,220.8 207.0,220.0 210.0,219.2 213.0,218.4 216.0,217.6 219.0,216.8 222.0,216.0 225.0,215.3 228.0,214.5 231.0,213.8 234.0,213.1 237.0,212.4 240.0,211.7 243.0,211.0 246.0,210.3 249.0,209.6 252.0,209.0 255.0,208.4 258.0,207.7 261.0,207.1 264.0,206.5 267.0,205.9 270.0,205.4 273.0,204.8 276.0,204.2 279.0,203.7 282.0,203.2 285.0,202.6 288.0,202.1 291.0,201.6 294.0,201.1 297.0,200.6 300.0,200.1 303.0,199.6 306.0,199.1 309.0,198.6 312.0,198.1 315.0,197.6 318.0,197.2 321.0,196.7 324.0,196.2 327.0,195.8 330.0,195.4 333.0,194.9 336.0,194.5 339.0,194.1 342.0,193.8 345.0,193.4 348.0,193.1 351.0,192.8 354.0,192.5 357.0,192.3 360.0,192.1"/>
<polyline class="lgt" points="60.0,237.0 63.0,236.3 66.0,235.7 69.0,235.0 72.0,234.3 75.0,233.6 78.0,232.9 81.0,232.2 84.0,231.5 87.0,230.8 90.0,230.1 93.0,229.4 96.0,228.7 99.0,228.0 102.0,227.4 105.0,226.7 108.0,226.0 111.0,225.3 114.0,224.6 117.0,223.9 120.0,223.3 123.0,222.6 126.0,221.9 129.0,221.2 132.0,220.6 135.0,219.9 138.0,219.2 141.0,218.5 144.0,217.9 147.0,217.2 150.0,216.6 153.0,215.9 156.0,215.2 159.0,214.6 162.0,213.9 165.0,213.3 168.0,212.6 171.0,212.0 174.0,211.3 177.0,210.7 180.0,210.0 183.0,209.4 186.0,208.8 189.0,208.2 192.0,207.5 195.0,206.9 198.0,206.3 201.0,205.7 204.0,205.1 207.0,204.5 210.0,203.9 213.0,203.3 216.0,202.7 219.0,202.2 222.0,201.6 225.0,201.0 228.0,200.5 231.0,200.0 234.0,199.4 237.0,198.9 240.0,198.4 243.0,197.9 246.0,197.5 249.0,197.0 252.0,196.6 255.0,196.1 258.0,195.7 261.0,195.3 264.0,195.0 267.0,194.6 270.0,194.3 273.0,194.0 276.0,193.7 279.0,193.4 282.0,193.2 285.0,192.9 288.0,192.7 291.0,192.5 294.0,192.3 297.0,192.1 300.0,192.0 303.0,191.8 306.0,191.6 309.0,191.5 312.0,191.3 315.0,191.1 318.0,191.0 321.0,190.8 324.0,190.6 327.0,190.5 330.0,190.3 333.0,190.1 336.0,190.0 339.0,189.8 342.0,189.6 345.0,189.4 348.0,189.3 351.0,189.1 354.0,188.9 357.0,188.7 360.0,188.5"/>
<polyline class="lgt" points="60.0,170.9 63.0,170.9 66.0,170.9 69.0,170.8 72.0,170.8 75.0,170.7 78.0,170.7 81.0,170.7 84.0,170.6 87.0,170.6 90.0,170.5 93.0,170.5 96.0,170.4 99.0,170.4 102.0,170.3 105.0,170.3 108.0,170.2 111.0,170.2 114.0,170.1 117.0,170.1 120.0,170.0 123.0,170.0 126.0,169.9 129.0,169.9 132.0,169.8 135.0,169.7 138.0,169.7 141.0,169.6 144.0,169.5 147.0,169.5 150.0,169.4 153.0,169.3 156.0,169.2 159.0,169.1 162.0,169.1 165.0,169.0 168.0,168.9 171.0,168.8 174.0,168.7 177.0,168.6 180.0,168.5 183.0,168.4 186.0,168.3 189.0,168.2 192.0,168.1 195.0,167.9 198.0,167.8 201.0,167.7 204.0,167.6 207.0,167.4 210.0,167.3 213.0,167.1 216.0,167.0 219.0,166.8 222.0,166.6 225.0,166.4 228.0,166.3 231.0,166.1 234.0,165.8 237.0,165.6 240.0,165.4 243.0,165.2 246.0,164.9 249.0,164.6 252.0,164.3 255.0,164.0 258.0,163.7 261.0,163.3 264.0,162.9 267.0,162.5 270.0,162.1 273.0,161.6 276.0,161.1 279.0,160.5 282.0,159.9 285.0,159.3 288.0,158.6 291.0,157.8 294.0,157.1 297.0,156.2 300.0,155.4 303.0,154.5 306.0,153.6 309.0,152.7 312.0,151.8 315.0,150.8 318.0,149.9 321.0,149.0 324.0,148.1 327.0,147.3 330.0,146.4 333.0,145.5 336.0,144.7 339.0,143.8 342.0,143.0 345.0,142.2 348.0,141.4 351.0,140.6 354.0,139.9 357.0,139.1 360.0,138.4"/>
<polyline class="lgt" points="60.0,176.7 63.0,176.6 66.0,176.5 69.0,176.4 72.0,176.3 75.0,176.2 78.0,176.1 81.0,176.0 84.0,175.9 87.0,175.8 90.0,175.7 93.0,175.6 96.0,175.5 99.0,175.4 102.0,175.3 105.0,175.2 108.0,175.1 111.0,175.0 114.0,174.9 117.0,174.8 120.0,174.6 123.0,174.5 126.0,174.4 129.0,174.3 132.0,174.2 135.0,174.1 138.0,174.0 141.0,173.8 144.0,173.7 147.0,173.6 150.0,173.5 153.0,173.3 156.0,173.2 159.0,173.1 162.0,173.0 165.0,172.8 168.0,172.7 171.0,172.5 174.0,172.4 177.0,172.3 180.0,172.1 183.0,172.0 186.0,171.8 189.0,171.7 192.0,171.5 195.0,171.3 198.0,171.2 201.0,171.0 204.0,170.8 207.0,170.6 210.0,170.5 213.0,170.3 216.0,170.1 219.0,169.9 222.0,169.7 225.0,169.5 228.0,169.3 231.0,169.0 234.0,168.8 237.0,168.6 240.0,168.3 243.0,168.0 246.0,167.8 249.0,167.5 252.0,167.2 255.0,166.9 258.0,166.5 261.0,166.2 264.0,165.8 267.0,165.4 270.0,165.0 273.0,164.5 276.0,164.1 279.0,163.5 282.0,163.0 285.0,162.3 288.0,161.7 291.0,160.9 294.0,160.2 297.0,159.3 300.0,158.4 303.0,157.5 306.0,156.5 309.0,155.5 312.0,154.5 315.0,153.5 318.0,152.5 321.0,151.5 324.0,150.5 327.0,149.5 330.0,148.6 333.0,147.6 336.0,146.7 339.0,145.8 342.0,144.9 345.0,144.1 348.0,143.3 351.0,142.5 354.0,141.7 357.0,140.9 360.0,140.2"/>
<polyline class="lgt" points="60.0,242.3 63.0,241.6 66.0,240.8 69.0,240.1 72.0,239.3 75.0,238.6 78.0,237.9 81.0,237.1 84.0,236.4 87.0,235.6 90.0,234.9 93.0,234.1 96.0,233.4 99.0,232.7 102.0,231.9 105.0,231.2 108.0,230.5 111.0,229.7 114.0,229.0 117.0,228.3 120.0,227.5 123.0,226.8 126.0,226.1 129.0,225.3 132.0,224.6 135.0,223.9 138.0,223.2 141.0,222.5 144.0,221.7 147.0,221.0 150.0,220.3 153.0,219.6 156.0,218.9 159.0,218.2 162.0,217.5 165.0,216.8 168.0,216.1 171.0,215.4 174.0,214.7 177.0,214.0 180.0,213.4 183.0,212.7 186.0,212.0 189.0,211.3 192.0,210.7 195.0,210.0 198.0,209.4 201.0,208.7 204.0,208.1 207.0,207.4 210.0,206.8 213.0,206.2 216.0,205.6 219.0,205.0 222.0,204.4 225.0,203.8 228.0,203.2 231.0,202.6 234.0,202.1 237.0,201.5 240.0,201.0 243.0,200.5 246.0,199.9 249.0,199.5 252.0,199.0 255.0,198.5 258.0,198.1 261.0,197.6 264.0,197.2 267.0,196.9 270.0,196.5 273.0,196.1 276.0,195.8 279.0,195.5 282.0,195.2 285.0,194.9 288.0,194.6 291.0,194.4 294.0,194.1 297.0,193.9 300.0,193.6 303.0,193.4 306.0,193.2 309.0,192.9 312.0,192.7 315.0,192.5 318.0,192.2 321.0,192.0 324.0,191.8 327.0,191.6 330.0,191.3 333.0,191.1 336.0,190.9 339.0,190.7 342.0,190.5 345.0,190.3 348.0,190.1 351.0,189.8 354.0,189.6 357.0,189.4 360.0,189.2"/>
<polyline class="lgt" points="60.0,126.0 63.0,126.4 66.0,126.8 69.0,127.2 72.0,127.7 75.0,128.1 78.0,128.5 81.0,128.9 84.0,129.3 87.0,129.7 90.0,130.1 93.0,130.4 96.0,130.8 99.0,131.2 102.0,131.6 105.0,132.0 108.0,132.4 111.0,132.8 114.0,133.1 117.0,133.5 120.0,133.9 123.0,134.2 126.0,134.6 129.0,134.9 132.0,135.3 135.0,135.6 138.0,136.0 141.0,136.3 144.0,136.7 147.0,137.0 150.0,137.3 153.0,137.6 156.0,137.9 159.0,138.3 162.0,138.6 165.0,138.9 168.0,139.1 171.0,139.4 174.0,139.7 177.0,140.0 180.0,140.2 183.0,140.5 186.0,140.7 189.0,141.0 192.0,141.2 195.0,141.4 198.0,141.6 201.0,141.8 204.0,142.0 207.0,142.1 210.0,142.3 213.0,142.4 216.0,142.6 219.0,142.7 222.0,142.8 225.0,142.9 228.0,142.9 231.0,143.0 234.0,143.0 237.0,143.0 240.0,143.0 243.0,143.0 246.0,142.9 249.0,142.8 252.0,142.7 255.0,142.6 258.0,142.5 261.0,142.3 264.0,142.1 267.0,141.9 270.0,141.7 273.0,141.5 276.0,141.2 279.0,141.0 282.0,140.7 285.0,140.4 288.0,140.1 291.0,139.8 294.0,139.5 297.0,139.2 300.0,138.9 303.0,138.5 306.0,138.2 309.0,137.8 312.0,137.5 315.0,137.1 318.0,136.7 321.0,136.3 324.0,135.9 327.0,135.5 330.0,135.0 333.0,134.5 336.0,134.0 339.0,133.5 342.0,133.0 345.0,132.4 348.0,131.8 351.0,131.1 354.0,130.4 357.0,129.7 360.0,128.9"/>
<polyline class="lgt" points="60.0,269.7 63.0,268.6 66.0,267.6 69.0,266.6 72.0,265.6 75.0,264.6 78.0,263.5 81.0,262.5 84.0,261.5 87.0,260.5 90.0,259.5 93.0,258.5 96.0,257.5 99.0,256.5 102.0,255.5 105.0,254.5 108.0,253.5 111.0,252.5 114.0,251.5 117.0,250.5 120.0,249.5 123.0,248.5 126.0,247.6 129.0,246.6 132.0,245.6 135.0,244.6 138.0,243.7 141.0,242.7 144.0,241.7 147.0,240.8 150.0,239.8 153.0,238.8 156.0,237.9 159.0,236.9 162.0,236.0 165.0,235.1 168.0,234.1 171.0,233.2 174.0,232.3 177.0,231.4 180.0,230.5 183.0,229.5 186.0,228.6 189.0,227.8 192.0,226.9 195.0,226.0 198.0,225.1 201.0,224.2 204.0,223.4 207.0,222.5 210.0,221.7 213.0,220.9 216.0,220.0 219.0,219.2 222.0,218.4 225.0,217.6 228.0,216.8 231.0,216.1 234.0,215.3 237.0,214.5 240.0,213.8 243.0,213.1 246.0,212.4 249.0,211.7 252.0,211.0 255.0,210.3 258.0,209.6 261.0,209.0 264.0,208.3 267.0,207.7 270.0,207.1 273.0,206.5 276.0,205.9 279.0,205.3 282.0,204.7 285.0,204.1 288.0,203.6 291.0,203.0 294.0,202.4 297.0,201.9 300.0,201.3 303.0,200.8 306.0,200.2 309.0,199.7 312.0,199.2 315.0,198.6 318.0,198.1 321.0,197.6 324.0,197.1 327.0,196.6 330.0,196.1 333.0,195.7 336.0,195.2 339.0,194.8 342.0,194.4 345.0,194.0 348.0,193.7 351.0,193.4 354.0,193.1 357.0,192.9 360.0,192.7"/>
<polyline class="lgt" points="60.0,268.3 63.0,267.3 66.0,266.3 69.0,265.3 72.0,264.3 75.0,263.3 78.0,262.2 81.0,261.2 84.0,260.3 87.0,259.3 90.0,258.3 93.0,257.3 96.0,256.3 99.0,255.3 102.0,254.3 105.0,253.3 108.0,252.3 111.0,251.3 114.0,250.4 117.0,249.4 120.0,248.4 123.0,247.4 126.0,246.5 129.0,245.5 132.0,244.5 135.0,243.6 138.0,242.6 141.0,241.7 144.0,240.7 147.0,239.8 150.0,238.8 153.0,237.9 156.0,236.9 159.0,236.0 162.0,235.1 165.0,234.1 168.0,233.2 171.0,232.3 174.0,231.4 177.0,230.5 180.0,229.6 183.0,228.7 186.0,227.8 189.0,226.9 192.0,226.0 195.0,225.2 198.0,224.3 201.0,223.5 204.0,222.6 207.0,221.8 210.0,220.9 213.0,220.1 216.0,219.3 219.0,218.5 222.0,217.7 225.0,216.9 228.0,216.1 231.0,215.4 234.0,214.6 237.0,213.9 240.0,213.2 243.0,212.5 246.0,211.8 249.0,211.1 252.0,210.4 255.0,209.7 258.0,209.1 261.0,208.4 264.0,207.8 267.0,207.2 270.0,206.6 273.0,206.0 276.0,205.4 279.0,204.8 282.0,204.3 285.0,203.7 288.0,203.1 291.0,202.6 294.0,202.0 297.0,201.5 300.0,201.0 303.0,200.4 306.0,199.9 309.0,199.4 312.0,198.8 315.0,198.3 318.0,197.8 321.0,197.3 324.0,196.8 327.0,196.4 330.0,195.9 333.0,195.4 336.0,195.0 339.0,194.6 342.0,194.2 345.0,193.8 348.0,193.5 351.0,193.2 354.0,192.9 357.0,192.7 360.0,192.5"/>
<polyline class="lgt" points="60.0,147.9 63.0,148.1 66.0,148.3 69.0,148.5 72.0,148.7 75.0,148.9 78.0,149.1 81.0,149.3 84.0,149.4 87.0,149.6 90.0,149.8 93.0,150.0 96.0,150.2 99.0,150.3 102.0,150.5 105.0,150.7 108.0,150.9 111.0,151.0 114.0,151.2 117.0,151.4 120.0,151.5 123.0,151.7 126.0,151.8 129.0,152.0 132.0,152.1 135.0,152.3 138.0,152.4 141.0,152.6 144.0,152.7 147.0,152.8 150.0,153.0 153.0,153.1 156.0,153.2 159.0,153.3 162.0,153.4 165.0,153.6 168.0,153.7 171.0,153.8 174.0,153.9 177.0,153.9 180.0,154.0 183.0,154.1 186.0,154.2 189.0,154.2 192.0,154.3 195.0,154.3 198.0,154.4 201.0,154.4 204.0,154.4 207.0,154.5 210.0,154.5 213.0,154.5 216.0,154.4 219.0,154.4 222.0,154.4 225.0,154.3 228.0,154.3 231.0,154.2 234.0,154.1 237.0,153.9 240.0,153.8 243.0,153.6 246.0,153.5 249.0,153.3 252.0,153.0 255.0,152.8 258.0,152.5 261.0,152.2 264.0,151.9 267.0,151.5 270.0,151.1 273.0,150.7 276.0,150.2 279.0,149.8 282.0,149.3 285.0,148.8 288.0,148.2 291.0,147.7 294.0,147.1 297.0,146.5 300.0,146.0 303.0,145.4 306.0,144.8 309.0,144.2 312.0,143.6 315.0,143.0 318.0,142.4 321.0,141.7 324.0,141.1 327.0,140.5 330.0,139.9 333.0,139.2 336.0,138.6 339.0,137.9 342.0,137.3 345.0,136.6 348.0,135.9 351.0,135.2 354.0,134.5 357.0,133.7 360.0,133.0"/>
<polyline class="lgt" points="60.0,269.3 63.0,268.3 66.0,267.2 69.0,266.2 72.0,265.2 75.0,264.2 78.0,263.2 81.0,262.2 84.0,261.2 87.0,260.2 90.0,259.2 93.0,258.2 96.0,257.2 99.0,256.2 102.0,255.2 105.0,254.2 108.0,253.2 111.0,252.2 114.0,251.2 117.0,250.2 120.0,249.2 123.0,248.2 126.0,247.3 129.0,246.3 132.0,245.3 135.0,244.3 138.0,243.4 141.0,242.4 144.0,241.4 147.0,240.5 150.0,239.5 153.0,238.6 156.0,237.6 159.0,236.7 162.0,235.7 165.0,234.8 168.0,233.9 171.0,233.0 174.0,232.0 177.0,231.1 180.0,230.2 183.0,229.3 186.0,228.4 189.0,227.5 192.0,226.6 195.0,225.8 198.0,224.9 201.0,224.0 204.0,223.2 207.0,222.3 210.0,221.5 213.0,220.6 216.0,219.8 219.0,219.0 222.0,218.2 225.0,217.4 228.0,216.6 231.0,215.9 234.0,215.1 237.0,214.4 240.0,213.6 243.0,212.9 246.0,212.2 249.0,211.5 252.0,210.8 255.0,210.1 258.0,209.5 261.0,208.8 264.0,208.2 267.0,207.6 270.0,207.0 273.0,206.4 276.0,205.8 279.0,205.2 282.0,204.6 285.0,204.0 288.0,203.4 291.0,202.9 294.0,202.3 297.0,201.8 300.0,201.2 303.0,200.7 306.0,200.1 309.0,199.6 312.0,199.1 315.0,198.5 318.0,198.0 321.0,197.5 324.0,197.0 327.0,196.5 330.0,196.1 333.0,195.6 336.0,195.2 339.0,194.7 342.0,194.3 345.0,194.0 348.0,193.6 351.0,193.3 354.0,193.1 357.0,192.8 360.0,192.6"/>
<polyline class="lgt" points="60.0,158.1 63.0,158.2 66.0,158.2 69.0,158.3 72.0,158.4 75.0,158.5 78.0,158.6 81.0,158.7 84.0,158.8 87.0,158.9 90.0,158.9 93.0,159.0 96.0,159.1 99.0,159.2 102.0,159.3 105.0,159.3 108.0,159.4 111.0,159.5 114.0,159.5 117.0,159.6 120.0,159.7 123.0,159.7 126.0,159.8 129.0,159.9 132.0,159.9 135.0,160.0 138.0,160.0 141.0,160.1 144.0,160.1 147.0,160.2 150.0,160.2 153.0,160.2 156.0,160.3 159.0,160.3 162.0,160.3 165.0,160.4 168.0,160.4 171.0,160.4 174.0,160.4 177.0,160.4 180.0,160.4 183.0,160.4 186.0,160.4 189.0,160.4 192.0,160.4 195.0,160.3 198.0,160.3 201.0,160.3 204.0,160.2 207.0,160.2 210.0,160.1 213.0,160.0 216.0,160.0 219.0,159.9 222.0,159.8 225.0,159.7 228.0,159.5 231.0,159.4 234.0,159.2 237.0,159.1 240.0,158.9 243.0,158.7 246.0,158.5 249.0,158.2 252.0,158.0 255.0,157.7 258.0,157.4 261.0,157.0 264.0,156.6 267.0,156.2 270.0,155.8 273.0,155.3 276.0,154.8 279.0,154.3 282.0,153.7 285.0,153.1 288.0,152.5 291.0,151.8 294.0,151.1 297.0,150.4 300.0,149.7 303.0,149.0 306.0,148.3 309.0,147.6 312.0,146.8 315.0,146.1 318.0,145.4 321.0,144.6 324.0,143.9 327.0,143.2 330.0,142.5 333.0,141.7 336.0,141.0 339.0,140.3 342.0,139.5 345.0,138.8 348.0,138.1 351.0,137.3 354.0,136.6 357.0,135.9 360.0,135.1"/>
<polyline class="lgt" points="60.0,181.1 63.0,181.0 66.0,180.8 69.0,180.7 72.0,180.5 75.0,180.4 78.0,180.3 81.0,180.1 84.0,180.0 87.0,179.8 90.0,179.7 93.0,179.6 96.0,179.4 99.0,179.3 102.0,179.1 105.0,179.0 108.0,178.8 111.0,178.7 114.0,178.5 117.0,178.4 120.0,178.2 123.0,178.1 126.0,177.9 129.0,177.8 132.0,177.6 135.0,177.4 138.0,177.3 141.0,177.1 144.0,177.0 147.0,176.8 150.0,176.6 153.0,176.5 156.0,176.3 159.0,176.1 162.0,176.0 165.0,175.8 168.0,175.6 171.0,175.4 174.0,175.3 177.0,175.1 180.0,174.9 183.0,174.7 186.0,174.5 189.0,174.3 192.0,174.2 195.0,174.0 198.0,173.8 201.0,173.6 204.0,173.4 207.0,173.1 210.0,172.9 213.0,172.7 216.0,172.5 219.0,172.3 222.0,172.0 225.0,171.8 228.0,171.6 231.0,171.3 234.0,171.1 237.0,170.8 240.0,170.6 243.0,170.3 246.0,170.0 249.0,169.7 252.0,169.4 255.0,169.1 258.0,168.8 261.0,168.4 264.0,168.1 267.0,167.7 270.0,167.3 273.0,166.9 276.0,166.4 279.0,165.9 282.0,165.4 285.0,164.8 288.0,164.2 291.0,163.5 294.0,162.8 297.0,162.0 300.0,161.1 303.0,160.2 306.0,159.2 309.0,158.1 312.0,157.1 315.0,156.0 318.0,154.9 321.0,153.8 324.0,152.7 327.0,151.7 330.0,150.6 333.0,149.6 336.0,148.6 339.0,147.7 342.0,146.8 345.0,145.9 348.0,145.0 351.0,144.2 354.0,143.4 357.0,142.7 360.0,142.0"/>
<polyline class="lgt" points="60.0,270.0 63.0,268.9 66.0,267.9 69.0,266.9 72.0,265.9 75.0,264.9 78.0,263.8 81.0,262.8 84.0,261.8 87.0,260.8 90.0,259.8 93.0,258.8 96.0,257.8 99.0,256.8 102.0,255.8 105.0,254.8 108.0,253.8 111.0,252.8 114.0,251.8 117.0,250.8 120.0,249.8 123.0,248.8 126.0,247.8 129.0,246.8 132.0,245.8 135.0,244.9 138.0,243.9 141.0,242.9 144.0,241.9 147.0,241.0 150.0,240.0 153.0,239.1 156.0,238.1 159.0,237.2 162.0,236.2 165.0,235.3 168.0,234.3 171.0,233.4 174.0,232.5 177.0,231.6 180.0,230.6 183.0,229.7 186.0,228.8 189.0,227.9 192.0,227.0 195.0,226.2 198.0,225.3 201.0,224.4 204.0,223.6 207.0,222.7 210.0,221.9 213.0,221.0 216.0,220.2 219.0,219.4 222.0,218.6 225.0,217.8 228.0,217.0 231.0,216.2 234.0,215.4 237.0,214.7 240.0,214.0 243.0,213.2 246.0,212.5 249.0,211.8 252.0,211.1 255.0,210.4 258.0,209.8 261.0,209.1 264.0,208.5 267.0,207.8 270.0,207.2 273.0,206.6 276.0,206.0 279.0,205.4 282.0,204.8 285.0,204.2 288.0,203.7 291.0,203.1 294.0,202.5 297.0,202.0 300.0,201.4 303.0,200.8 306.0,200.3 309.0,199.8 312.0,199.2 315.0,198.7 318.0,198.2 321.0,197.7 324.0,197.1 327.0,196.7 330.0,196.2 333.0,195.7 336.0,195.3 339.0,194.8 342.0,194.4 345.0,194.1 348.0,193.7 351.0,193.4 354.0,193.1 357.0,192.9 360.0,192.7"/>
<polyline class="lgt" points="60.0,243.1 63.0,242.4 66.0,241.6 69.0,240.8 72.0,240.1 75.0,239.3 78.0,238.6 81.0,237.8 84.0,237.1 87.0,236.3 90.0,235.6 93.0,234.8 96.0,234.1 99.0,233.3 102.0,232.6 105.0,231.9 108.0,231.1 111.0,230.4 114.0,229.6 117.0,228.9 120.0,228.2 123.0,227.4 126.0,226.7 129.0,226.0 132.0,225.2 135.0,224.5 138.0,223.8 141.0,223.0 144.0,222.3 147.0,221.6 150.0,220.9 153.0,220.2 156.0,219.5 159.0,218.7 162.0,218.0 165.0,217.3 168.0,216.6 171.0,215.9 174.0,215.2 177.0,214.5 180.0,213.9 183.0,213.2 186.0,212.5 189.0,211.8 192.0,211.1 195.0,210.5 198.0,209.8 201.0,209.2 204.0,208.5 207.0,207.9 210.0,207.2 213.0,206.6 216.0,206.0 219.0,205.4 222.0,204.8 225.0,204.2 228.0,203.6 231.0,203.0 234.0,202.4 237.0,201.9 240.0,201.3 243.0,200.8 246.0,200.3 249.0,199.8 252.0,199.3 255.0,198.9 258.0,198.4 261.0,198.0 264.0,197.6 267.0,197.2 270.0,196.8 273.0,196.4 276.0,196.1 279.0,195.8 282.0,195.5 285.0,195.2 288.0,194.9 291.0,194.6 294.0,194.4 297.0,194.1 300.0,193.9 303.0,193.6 306.0,193.4 309.0,193.1 312.0,192.9 315.0,192.7 318.0,192.4 321.0,192.2 324.0,192.0 327.0,191.7 330.0,191.5 333.0,191.3 336.0,191.0 339.0,190.8 342.0,190.6 345.0,190.4 348.0,190.2 351.0,190.0 354.0,189.7 357.0,189.5 360.0,189.4"/>
<polyline class="lgt" points="60.0,182.6 63.0,182.4 66.0,182.3 69.0,182.1 72.0,182.0 75.0,181.8 78.0,181.7 81.0,181.5 84.0,181.4 87.0,181.2 90.0,181.0 93.0,180.9 96.0,180.7 99.0,180.6 102.0,180.4 105.0,180.2 108.0,180.1 111.0,179.9 114.0,179.8 117.0,179.6 120.0,179.4 123.0,179.3 126.0,179.1 129.0,178.9 132.0,178.7 135.0,178.6 138.0,178.4 141.0,178.2 144.0,178.1 147.0,177.9 150.0,177.7 153.0,177.5 156.0,177.3 159.0,177.2 162.0,177.0 165.0,176.8 168.0,176.6 171.0,176.4 174.0,176.2 177.0,176.0 180.0,175.8 183.0,175.6 186.0,175.4 189.0,175.2 192.0,175.0 195.0,174.8 198.0,174.6 201.0,174.4 204.0,174.2 207.0,174.0 210.0,173.8 213.0,173.5 216.0,173.3 219.0,173.1 222.0,172.8 225.0,172.6 228.0,172.4 231.0,172.1 234.0,171.8 237.0,171.6 240.0,171.3 243.0,171.0 246.0,170.8 249.0,170.5 252.0,170.2 255.0,169.8 258.0,169.5 261.0,169.2 264.0,168.8 267.0,168.5 270.0,168.1 273.0,167.7 276.0,167.2 279.0,166.7 282.0,166.2 285.0,165.7 288.0,165.1 291.0,164.5 294.0,163.8 297.0,163.0 300.0,162.1 303.0,161.2 306.0,160.2 309.0,159.2 312.0,158.1 315.0,156.9 318.0,155.8 321.0,154.7 324.0,153.6 327.0,152.5 330.0,151.4 333.0,150.4 336.0,149.4 339.0,148.4 342.0,147.5 345.0,146.6 348.0,145.7 351.0,144.9 354.0,144.1 357.0,143.3 360.0,142.6"/>
<polyline class="lgt" points="60.0,118.8 63.0,119.3 66.0,119.8 69.0,120.2 72.0,120.7 75.0,121.2 78.0,121.7 81.0,122.1 84.0,122.6 87.0,123.1 90.0,123.6 93.0,124.0 96.0,124.5 99.0,124.9 102.0,125.4 105.0,125.8 108.0,126.3 111.0,126.7 114.0,127.2 117.0,127.6 120.0,128.0 123.0,128.5 126.0,128.9 129.0,129.3 132.0,129.7 135.0,130.2 138.0,130.6 141.0,131.0 144.0,131.4 147.0,131.8 150.0,132.2 153.0,132.5 156.0,132.9 159.0,133.3 162.0,133.7 165.0,134.0 168.0,134.4 171.0,134.7 174.0,135.0 177.0,135.4 180.0,135.7 183.0,136.0 186.0,136.3 189.0,136.6 192.0,136.9 195.0,137.1 198.0,137.4 201.0,137.6 204.0,137.9 207.0,138.1 210.0,138.3 213.0,138.5 216.0,138.7 219.0,138.8 222.0,139.0 225.0,139.1 228.0,139.2 231.0,139.3 234.0,139.4 237.0,139.4 240.0,139.5 243.0,139.5 246.0,139.5 249.0,139.5 252.0,139.4 255.0,139.4 258.0,139.3 261.0,139.2 264.0,139.1 267.0,138.9 270.0,138.8 273.0,138.6 276.0,138.5 279.0,138.3 282.0,138.1 285.0,137.9 288.0,137.7 291.0,137.4 294.0,137.2 297.0,137.0 300.0,136.7 303.0,136.5 306.0,136.2 309.0,135.9 312.0,135.6 315.0,135.3 318.0,135.0 321.0,134.7 324.0,134.3 327.0,133.9 330.0,133.5 333.0,133.1 336.0,132.7 339.0,132.2 342.0,131.7 345.0,131.1 348.0,130.5 351.0,129.9 354.0,129.2 357.0,128.5 360.0,127.7"/>
<polyline class="lgt" points="60.0,152.3 63.0,152.5 66.0,152.6 69.0,152.8 72.0,152.9 75.0,153.1 78.0,153.2 81.0,153.4 84.0,153.5 87.0,153.6 90.0,153.8 93.0,153.9 96.0,154.1 99.0,154.2 102.0,154.3 105.0,154.5 108.0,154.6 111.0,154.7 114.0,154.8 117.0,154.9 120.0,155.1 123.0,155.2 126.0,155.3 129.0,155.4 132.0,155.5 135.0,155.6 138.0,155.7 141.0,155.8 144.0,155.9 147.0,156.0 150.0,156.1 153.0,156.2 156.0,156.3 159.0,156.4 162.0,156.4 165.0,156.5 168.0,156.6 171.0,156.6 174.0,156.7 177.0,156.8 180.0,156.8 183.0,156.8 186.0,156.9 189.0,156.9 192.0,156.9 195.0,157.0 198.0,157.0 201.0,157.0 204.0,157.0 207.0,156.9 210.0,156.9 213.0,156.9 216.0,156.8 219.0,156.8 222.0,156.7 225.0,156.6 228.0,156.5 231.0,156.4 234.0,156.3 237.0,156.2 240.0,156.0 243.0,155.8 246.0,155.6 249.0,155.4 252.0,155.2 255.0,154.9 258.0,154.6 261.0,154.3 264.0,153.9 267.0,153.5 270.0,153.1 273.0,152.7 276.0,152.2 279.0,151.7 282.0,151.2 285.0,150.6 288.0,150.0 291.0,149.4 294.0,148.8 297.0,148.2 300.0,147.5 303.0,146.9 306.0,146.2 309.0,145.6 312.0,144.9 315.0,144.3 318.0,143.6 321.0,143.0 324.0,142.3 327.0,141.6 330.0,141.0 333.0,140.3 336.0,139.6 339.0,138.9 342.0,138.2 345.0,137.5 348.0,136.8 351.0,136.1 354.0,135.4 357.0,134.6 360.0,133.9"/>
<polyline class="lgt" points="60.0,98.2 63.0,98.9 66.0,99.5 69.0,100.2 72.0,100.9 75.0,101.6 78.0,102.3 81.0,103.0 84.0,103.6 87.0,104.3 90.0,105.0 93.0,105.6 96.0,106.3 99.0,107.0 102.0,107.6 105.0,108.3 108.0,108.9 111.0,109.5 114.0,110.2 117.0,110.8 120.0,111.4 123.0,112.1 126.0,112.7 129.0,113.3 132.0,113.9 135.0,114.5 138.0,115.1 141.0,115.7 144.0,116.3 147.0,116.9 150.0,117.4 153.0,118.0 156.0,118.6 159.0,119.1 162.0,119.6 165.0,120.2 168.0,120.7 171.0,121.2 174.0,121.7 177.0,122.2 180.0,122.7 183.0,123.2 186.0,123.7 189.0,124.1 192.0,124.5 195.0,125.0 198.0,125.4 201.0,125.8 204.0,126.2 207.0,126.6 210.0,126.9 213.0,127.3 216.0,127.6 219.0,127.9 222.0,128.2 225.0,128.5 228.0,128.8 231.0,129.0 234.0,129.2 237.0,129.5 240.0,129.7 243.0,129.8 246.0,130.0 249.0,130.2 252.0,130.3 255.0,130.4 258.0,130.5 261.0,130.6 264.0,130.7 267.0,130.8 270.0,130.8 273.0,130.9 276.0,130.9 279.0,130.9 282.0,131.0 285.0,131.0 288.0,131.0 291.0,131.0 294.0,131.0 297.0,130.9 300.0,130.9 303.0,130.9 306.0,130.8 309.0,130.7 312.0,130.6 315.0,130.5 318.0,130.4 321.0,130.2 324.0,130.0 327.0,129.8 330.0,129.6 333.0,129.3 336.0,129.0 339.0,128.6 342.0,128.2 345.0,127.7 348.0,127.2 351.0,126.6 354.0,125.9 357.0,125.2 360.0,124.4"/>
<polyline class="lgt" points="60.0,265.7 63.0,264.7 66.0,263.8 69.0,262.8 72.0,261.8 75.0,260.8 78.0,259.8 81.0,258.9 84.0,257.9 87.0,256.9 90.0,256.0 93.0,255.0 96.0,254.0 99.0,253.1 102.0,252.1 105.0,251.1 108.0,250.2 111.0,249.2 114.0,248.3 117.0,247.3 120.0,246.4 123.0,245.4 126.0,244.5 129.0,243.5 132.0,242.6 135.0,241.6 138.0,240.7 141.0,239.8 144.0,238.8 147.0,237.9 150.0,237.0 153.0,236.1 156.0,235.2 159.0,234.3 162.0,233.3 165.0,232.4 168.0,231.5 171.0,230.6 174.0,229.8 177.0,228.9 180.0,228.0 183.0,227.1 186.0,226.3 189.0,225.4 192.0,224.5 195.0,223.7 198.0,222.8 201.0,222.0 204.0,221.2 207.0,220.4 210.0,219.6 213.0,218.8 216.0,218.0 219.0,217.2 222.0,216.4 225.0,215.6 228.0,214.9 231.0,214.1 234.0,213.4 237.0,212.7 240.0,212.0 243.0,211.3 246.0,210.6 249.0,209.9 252.0,209.3 255.0,208.7 258.0,208.0 261.0,207.4 264.0,206.8 267.0,206.2 270.0,205.6 273.0,205.1 276.0,204.5 279.0,204.0 282.0,203.4 285.0,202.9 288.0,202.3 291.0,201.8 294.0,201.3 297.0,200.8 300.0,200.3 303.0,199.8 306.0,199.3 309.0,198.8 312.0,198.3 315.0,197.8 318.0,197.3 321.0,196.8 324.0,196.4 327.0,195.9 330.0,195.5 333.0,195.0 336.0,194.6 339.0,194.2 342.0,193.9 345.0,193.5 348.0,193.2 351.0,192.9 354.0,192.6 357.0,192.4 360.0,192.2"/>
<polyline class="lgt" points="60.0,281.3 63.0,280.1 66.0,279.0 69.0,277.9 72.0,276.7 75.0,275.6 78.0,274.5 81.0,273.3 84.0,272.2 87.0,271.1 90.0,270.0 93.0,268.8 96.0,267.7 99.0,266.6 102.0,265.5 105.0,264.4 108.0,263.3 111.0,262.2 114.0,261.1 117.0,260.0 120.0,258.9 123.0,257.8 126.0,256.7 129.0,255.6 132.0,254.5 135.0,253.4 138.0,252.3 141.0,251.3 144.0,250.2 147.0,249.1 150.0,248.1 153.0,247.0 156.0,246.0 159.0,244.9 162.0,243.9 165.0,242.8 168.0,241.8 171.0,240.7 174.0,239.7 177.0,238.7 180.0,237.7 183.0,236.7 186.0,235.7 189.0,234.7 192.0,233.7 195.0,232.7 198.0,231.8 201.0,230.8 204.0,229.8 207.0,228.9 210.0,228.0 213.0,227.0 216.0,226.1 219.0,225.2 222.0,224.3 225.0,223.4 228.0,222.5 231.0,221.7 234.0,220.8 237.0,220.0 240.0,219.1 243.0,218.3 246.0,217.5 249.0,216.7 252.0,215.9 255.0,215.1 258.0,214.3 261.0,213.6 264.0,212.8 267.0,212.1 270.0,211.3 273.0,210.6 276.0,209.9 279.0,209.2 282.0,208.5 285.0,207.8 288.0,207.1 291.0,206.4 294.0,205.7 297.0,205.0 300.0,204.3 303.0,203.6 306.0,203.0 309.0,202.3 312.0,201.7 315.0,201.0 318.0,200.4 321.0,199.8 324.0,199.2 327.0,198.6 330.0,198.0 333.0,197.4 336.0,196.9 339.0,196.4 342.0,195.9 345.0,195.5 348.0,195.1 351.0,194.8 354.0,194.5 357.0,194.2 360.0,194.0"/>
<polyline class="lgt" points="60.0,189.0 63.0,188.8 66.0,188.6 69.0,188.4 72.0,188.2 75.0,187.9 78.0,187.7 81.0,187.5 84.0,187.3 87.0,187.1 90.0,186.8 93.0,186.6 96.0,186.4 99.0,186.2 102.0,186.0 105.0,185.7 108.0,185.5 111.0,185.3 114.0,185.1 117.0,184.8 120.0,184.6 123.0,184.4 126.0,184.2 129.0,183.9 132.0,183.7 135.0,183.5 138.0,183.2 141.0,183.0 144.0,182.8 147.0,182.5 150.0,182.3 153.0,182.1 156.0,181.8 159.0,181.6 162.0,181.4 165.0,181.1 168.0,180.9 171.0,180.6 174.0,180.4 177.0,180.1 180.0,179.9 183.0,179.7 186.0,179.4 189.0,179.2 192.0,178.9 195.0,178.6 198.0,178.4 201.0,178.1 204.0,177.9 207.0,177.6 210.0,177.4 213.0,177.1 216.0,176.8 219.0,176.6 222.0,176.3 225.0,176.0 228.0,175.7 231.0,175.4 234.0,175.2 237.0,174.9 240.0,174.6 243.0,174.3 246.0,174.0 249.0,173.7 252.0,173.4 255.0,173.1 258.0,172.8 261.0,172.4 264.0,172.1 267.0,171.8 270.0,171.4 273.0,171.1 276.0,170.7 279.0,170.3 282.0,169.9 285.0,169.5 288.0,169.1 291.0,168.6 294.0,168.1 297.0,167.5 300.0,166.9 303.0,166.3 306.0,165.5 309.0,164.7 312.0,163.7 315.0,162.6 318.0,161.5 321.0,160.2 324.0,158.9 327.0,157.7 330.0,156.4 333.0,155.2 336.0,154.0 339.0,152.9 342.0,151.9 345.0,150.9 348.0,149.9 351.0,149.0 354.0,148.2 357.0,147.5 360.0,146.8"/>
<polyline class="lgt" points="60.0,176.9 63.0,176.8 66.0,176.7 69.0,176.6 72.0,176.5 75.0,176.4 78.0,176.3 81.0,176.2 84.0,176.1 87.0,176.0 90.0,175.9 93.0,175.8 96.0,175.7 99.0,175.6 102.0,175.5 105.0,175.4 108.0,175.3 111.0,175.2 114.0,175.1 117.0,175.0 120.0,174.9 123.0,174.7 126.0,174.6 129.0,174.5 132.0,174.4 135.0,174.3 138.0,174.2 141.0,174.0 144.0,173.9 147.0,173.8 150.0,173.7 153.0,173.5 156.0,173.4 159.0,173.3 162.0,173.1 165.0,173.0 168.0,172.9 171.0,172.7 174.0,172.6 177.0,172.4 180.0,172.3 183.0,172.1 186.0,172.0 189.0,171.8 192.0,171.7 195.0,171.5 198.0,171.3 201.0,171.1 204.0,171.0 207.0,170.8 210.0,170.6 213.0,170.4 216.0,170.2 219.0,170.0 222.0,169.8 225.0,169.6 228.0,169.4 231.0,169.2 234.0,168.9 237.0,168.7 240.0,168.4 243.0,168.2 246.0,167.9 249.0,167.6 252.0,167.3 255.0,167.0 258.0,166.7 261.0,166.3 264.0,165.9 267.0,165.6 270.0,165.1 273.0,164.7 276.0,164.2 279.0,163.7 282.0,163.1 285.0,162.5 288.0,161.8 291.0,161.1 294.0,160.3 297.0,159.5 300.0,158.6 303.0,157.6 306.0,156.7 309.0,155.7 312.0,154.6 315.0,153.6 318.0,152.6 321.0,151.6 324.0,150.6 327.0,149.6 330.0,148.7 333.0,147.7 336.0,146.8 339.0,145.9 342.0,145.0 345.0,144.2 348.0,143.3 351.0,142.5 354.0,141.8 357.0,141.0 360.0,140.3"/>
<polyline class="lgt" points="60.0,212.8 63.0,212.3 66.0,211.9 69.0,211.4 72.0,211.0 75.0,210.5 78.0,210.1 81.0,209.6 84.0,209.2 87.0,208.7 90.0,208.3 93.0,207.8 96.0,207.4 99.0,206.9 102.0,206.5 105.0,206.0 108.0,205.6 111.0,205.1 114.0,204.6 117.0,204.2 120.0,203.7 123.0,203.3 126.0,202.8 129.0,202.4 132.0,201.9 135.0,201.5 138.0,201.1 141.0,200.6 144.0,200.2 147.0,199.7 150.0,199.3 153.0,198.8 156.0,198.4 159.0,197.9 162.0,197.5 165.0,197.0 168.0,196.6 171.0,196.2 174.0,195.7 177.0,195.3 180.0,194.8 183.0,194.4 186.0,194.0 189.0,193.5 192.0,193.1 195.0,192.7 198.0,192.2 201.0,191.8 204.0,191.4 207.0,191.0 210.0,190.5 213.0,190.1 216.0,189.7 219.0,189.3 222.0,188.9 225.0,188.5 228.0,188.1 231.0,187.7 234.0,187.3 237.0,186.9 240.0,186.5 243.0,186.2 246.0,185.8 249.0,185.5 252.0,185.1 255.0,184.8 258.0,184.5 261.0,184.2 264.0,183.9 267.0,183.7 270.0,183.4 273.0,183.2 276.0,183.0 279.0,182.9 282.0,182.7 285.0,182.6 288.0,182.6 291.0,182.6 294.0,182.6 297.0,182.7 300.0,182.8 303.0,182.9 306.0,183.1 309.0,183.3 312.0,183.5 315.0,183.6 318.0,183.8 321.0,184.0 324.0,184.2 327.0,184.3 330.0,184.5 333.0,184.6 336.0,184.7 339.0,184.8 342.0,184.8 345.0,184.9 348.0,184.8 351.0,184.8 354.0,184.7 357.0,184.5 360.0,184.3"/>
<polyline class="lgt" points="60.0,177.1 63.0,177.0 66.0,176.9 69.0,176.8 72.0,176.7 75.0,176.6 78.0,176.5 81.0,176.4 84.0,176.3 87.0,176.2 90.0,176.1 93.0,176.0 96.0,175.9 99.0,175.8 102.0,175.7 105.0,175.5 108.0,175.4 111.0,175.3 114.0,175.2 117.0,175.1 120.0,175.0 123.0,174.9 126.0,174.8 129.0,174.6 132.0,174.5 135.0,174.4 138.0,174.3 141.0,174.2 144.0,174.0 147.0,173.9 150.0,173.8 153.0,173.6 156.0,173.5 159.0,173.4 162.0,173.2 165.0,173.1 168.0,173.0 171.0,172.8 174.0,172.7 177.0,172.5 180.0,172.4 183.0,172.2 186.0,172.1 189.0,171.9 192.0,171.7 195.0,171.6 198.0,171.4 201.0,171.2 204.0,171.1 207.0,170.9 210.0,170.7 213.0,170.5 216.0,170.3 219.0,170.1 222.0,169.9 225.0,169.7 228.0,169.5 231.0,169.2 234.0,169.0 237.0,168.8 240.0,168.5 243.0,168.3 246.0,168.0 249.0,167.7 252.0,167.4 255.0,167.1 258.0,166.8 261.0,166.4 264.0,166.0 267.0,165.6 270.0,165.2 273.0,164.8 276.0,164.3 279.0,163.8 282.0,163.2 285.0,162.6 288.0,161.9 291.0,161.2 294.0,160.4 297.0,159.6 300.0,158.7 303.0,157.7 306.0,156.7 309.0,155.7 312.0,154.7 315.0,153.7 318.0,152.7 321.0,151.7 324.0,150.7 327.0,149.7 330.0,148.7 333.0,147.8 336.0,146.9 339.0,146.0 342.0,145.1 345.0,144.2 348.0,143.4 351.0,142.6 354.0,141.8 357.0,141.1 360.0,140.4"/>
<polyline class="lgt" points="60.0,243.0 63.0,242.3 66.0,241.5 69.0,240.8 72.0,240.0 75.0,239.3 78.0,238.5 81.0,237.8 84.0,237.0 87.0,236.3 90.0,235.5 93.0,234.8 96.0,234.0 99.0,233.3 102.0,232.5 105.0,231.8 108.0,231.0 111.0,230.3 114.0,229.6 117.0,228.8 120.0,228.1 123.0,227.3 126.0,226.6 129.0,225.9 132.0,225.2 135.0,224.4 138.0,223.7 141.0,223.0 144.0,222.3 147.0,221.5 150.0,220.8 153.0,220.1 156.0,219.4 159.0,218.7 162.0,218.0 165.0,217.3 168.0,216.6 171.0,215.9 174.0,215.2 177.0,214.5 180.0,213.8 183.0,213.1 186.0,212.4 189.0,211.8 192.0,211.1 195.0,210.4 198.0,209.8 201.0,209.1 204.0,208.5 207.0,207.8 210.0,207.2 213.0,206.6 216.0,205.9 219.0,205.3 222.0,204.7 225.0,204.1 228.0,203.5 231.0,203.0 234.0,202.4 237.0,201.8 240.0,201.3 243.0,200.8 246.0,200.3 249.0,199.8 252.0,199.3 255.0,198.8 258.0,198.4 261.0,197.9 264.0,197.5 267.0,197.1 270.0,196.8 273.0,196.4 276.0,196.1 279.0,195.7 282.0,195.4 285.0,195.1 288.0,194.9 291.0,194.6 294.0,194.3 297.0,194.1 300.0,193.8 303.0,193.6 306.0,193.4 309.0,193.1 312.0,192.9 315.0,192.6 318.0,192.4 321.0,192.2 324.0,191.9 327.0,191.7 330.0,191.5 333.0,191.2 336.0,191.0 339.0,190.8 342.0,190.6 345.0,190.4 348.0,190.2 351.0,189.9 354.0,189.7 357.0,189.5 360.0,189.3"/>
<polyline class="lgt" points="60.0,132.9 63.0,133.2 66.0,133.6 69.0,133.9 72.0,134.3 75.0,134.6 78.0,134.9 81.0,135.3 84.0,135.6 87.0,135.9 90.0,136.3 93.0,136.6 96.0,136.9 99.0,137.2 102.0,137.6 105.0,137.9 108.0,138.2 111.0,138.5 114.0,138.8 117.0,139.1 120.0,139.4 123.0,139.7 126.0,140.0 129.0,140.3 132.0,140.6 135.0,140.9 138.0,141.1 141.0,141.4 144.0,141.7 147.0,142.0 150.0,142.2 153.0,142.5 156.0,142.7 159.0,143.0 162.0,143.2 165.0,143.5 168.0,143.7 171.0,143.9 174.0,144.1 177.0,144.4 180.0,144.6 183.0,144.8 186.0,144.9 189.0,145.1 192.0,145.3 195.0,145.5 198.0,145.6 201.0,145.8 204.0,145.9 207.0,146.0 210.0,146.1 213.0,146.2 216.0,146.3 219.0,146.4 222.0,146.4 225.0,146.4 228.0,146.5 231.0,146.5 234.0,146.4 237.0,146.4 240.0,146.4 243.0,146.3 246.0,146.2 249.0,146.1 252.0,145.9 255.0,145.7 258.0,145.6 261.0,145.3 264.0,145.1 267.0,144.9 270.0,144.6 273.0,144.3 276.0,144.0 279.0,143.6 282.0,143.3 285.0,142.9 288.0,142.5 291.0,142.2 294.0,141.8 297.0,141.4 300.0,141.0 303.0,140.6 306.0,140.1 309.0,139.7 312.0,139.3 315.0,138.8 318.0,138.4 321.0,137.9 324.0,137.5 327.0,137.0 330.0,136.5 333.0,135.9 336.0,135.4 339.0,134.8 342.0,134.2 345.0,133.6 348.0,133.0 351.0,132.3 354.0,131.6 357.0,130.9 360.0,130.2"/>
<polyline class="lgt" points="60.0,277.2 63.0,276.1 66.0,275.0 69.0,274.0 72.0,272.9 75.0,271.8 78.0,270.7 81.0,269.6 84.0,268.5 87.0,267.4 90.0,266.3 93.0,265.3 96.0,264.2 99.0,263.1 102.0,262.0 105.0,260.9 108.0,259.9 111.0,258.8 114.0,257.7 117.0,256.7 120.0,255.6 123.0,254.6 126.0,253.5 129.0,252.5 132.0,251.4 135.0,250.4 138.0,249.3 141.0,248.3 144.0,247.3 147.0,246.2 150.0,245.2 153.0,244.2 156.0,243.2 159.0,242.1 162.0,241.1 165.0,240.1 168.0,239.1 171.0,238.1 174.0,237.1 177.0,236.2 180.0,235.2 183.0,234.2 186.0,233.2 189.0,232.3 192.0,231.3 195.0,230.4 198.0,229.5 201.0,228.5 204.0,227.6 207.0,226.7 210.0,225.8 213.0,224.9 216.0,224.0 219.0,223.1 222.0,222.3 225.0,221.4 228.0,220.6 231.0,219.7 234.0,218.9 237.0,218.1 240.0,217.3 243.0,216.5 246.0,215.7 249.0,215.0 252.0,214.2 255.0,213.5 258.0,212.7 261.0,212.0 264.0,211.3 267.0,210.6 270.0,209.9 273.0,209.2 276.0,208.5 279.0,207.8 282.0,207.2 285.0,206.5 288.0,205.9 291.0,205.2 294.0,204.6 297.0,203.9 300.0,203.3 303.0,202.7 306.0,202.0 309.0,201.4 312.0,200.8 315.0,200.2 318.0,199.6 321.0,199.0 324.0,198.4 327.0,197.9 330.0,197.3 333.0,196.8 336.0,196.3 339.0,195.8 342.0,195.4 345.0,195.0 348.0,194.6 351.0,194.3 354.0,194.0 357.0,193.7 360.0,193.6"/>
<polyline class="lgt" points="60.0,186.5 63.0,186.3 66.0,186.1 69.0,185.9 72.0,185.7 75.0,185.6 78.0,185.4 81.0,185.2 84.0,185.0 87.0,184.8 90.0,184.6 93.0,184.4 96.0,184.2 99.0,184.0 102.0,183.8 105.0,183.6 108.0,183.4 111.0,183.2 114.0,183.0 117.0,182.8 120.0,182.6 123.0,182.4 126.0,182.2 129.0,182.0 132.0,181.8 135.0,181.6 138.0,181.3 141.0,181.1 144.0,180.9 147.0,180.7 150.0,180.5 153.0,180.3 156.0,180.1 159.0,179.9 162.0,179.6 165.0,179.4 168.0,179.2 171.0,179.0 174.0,178.8 177.0,178.5 180.0,178.3 183.0,178.1 186.0,177.9 189.0,177.6 192.0,177.4 195.0,177.2 198.0,176.9 201.0,176.7 204.0,176.4 207.0,176.2 210.0,176.0 213.0,175.7 216.0,175.4 219.0,175.2 222.0,174.9 225.0,174.7 228.0,174.4 231.0,174.1 234.0,173.9 237.0,173.6 240.0,173.3 243.0,173.0 246.0,172.7 249.0,172.4 252.0,172.1 255.0,171.8 258.0,171.5 261.0,171.2 264.0,170.8 267.0,170.5 270.0,170.1 273.0,169.7 276.0,169.3 279.0,168.9 282.0,168.5 285.0,168.0 288.0,167.5 291.0,166.9 294.0,166.4 297.0,165.7 300.0,165.0 303.0,164.2 306.0,163.3 309.0,162.3 312.0,161.2 315.0,160.0 318.0,158.8 321.0,157.6 324.0,156.4 327.0,155.2 330.0,154.1 333.0,152.9 336.0,151.8 339.0,150.8 342.0,149.8 345.0,148.8 348.0,147.9 351.0,147.0 354.0,146.2 357.0,145.5 360.0,144.8"/>
<polyline class="lgt" points="60.0,171.5 63.0,171.5 66.0,171.4 69.0,171.4 72.0,171.3 75.0,171.3 78.0,171.2 81.0,171.2 84.0,171.1 87.0,171.1 90.0,171.0 93.0,171.0 96.0,170.9 99.0,170.9 102.0,170.8 105.0,170.8 108.0,170.7 111.0,170.7 114.0,170.6 117.0,170.6 120.0,170.5 123.0,170.4 126.0,170.4 129.0,170.3 132.0,170.2 135.0,170.2 138.0,170.1 141.0,170.0 144.0,169.9 147.0,169.9 150.0,169.8 153.0,169.7 156.0,169.6 159.0,169.5 162.0,169.4 165.0,169.4 168.0,169.3 171.0,169.2 174.0,169.1 177.0,169.0 180.0,168.9 183.0,168.8 186.0,168.6 189.0,168.5 192.0,168.4 195.0,168.3 198.0,168.2 201.0,168.0 204.0,167.9 207.0,167.7 210.0,167.6 213.0,167.4 216.0,167.3 219.0,167.1 222.0,166.9 225.0,166.7 228.0,166.6 231.0,166.4 234.0,166.1 237.0,165.9 240.0,165.7 243.0,165.4 246.0,165.2 249.0,164.9 252.0,164.6 255.0,164.3 258.0,164.0 261.0,163.6 264.0,163.2 267.0,162.8 270.0,162.4 273.0,161.9 276.0,161.4 279.0,160.8 282.0,160.2 285.0,159.6 288.0,158.9 291.0,158.1 294.0,157.4 297.0,156.5 300.0,155.7 303.0,154.8 306.0,153.9 309.0,152.9 312.0,152.0 315.0,151.1 318.0,150.2 321.0,149.3 324.0,148.4 327.0,147.5 330.0,146.6 333.0,145.7 336.0,144.8 339.0,144.0 342.0,143.2 345.0,142.4 348.0,141.6 351.0,140.8 354.0,140.0 357.0,139.3 360.0,138.6"/>
<polyline class="lgt" points="60.0,198.2 63.0,197.9 66.0,197.6 69.0,197.3 72.0,197.0 75.0,196.7 78.0,196.4 81.0,196.1 84.0,195.7 87.0,195.4 90.0,195.1 93.0,194.8 96.0,194.5 99.0,194.2 102.0,193.9 105.0,193.6 108.0,193.3 111.0,192.9 114.0,192.6 117.0,192.3 120.0,192.0 123.0,191.7 126.0,191.4 129.0,191.1 132.0,190.8 135.0,190.4 138.0,190.1 141.0,189.8 144.0,189.5 147.0,189.2 150.0,188.9 153.0,188.5 156.0,188.2 159.0,187.9 162.0,187.6 165.0,187.3 168.0,187.0 171.0,186.6 174.0,186.3 177.0,186.0 180.0,185.7 183.0,185.4 186.0,185.0 189.0,184.7 192.0,184.4 195.0,184.1 198.0,183.7 201.0,183.4 204.0,183.1 207.0,182.8 210.0,182.5 213.0,182.1 216.0,181.8 219.0,181.5 222.0,181.2 225.0,180.8 228.0,180.5 231.0,180.2 234.0,179.9 237.0,179.6 240.0,179.2 243.0,178.9 246.0,178.6 249.0,178.3 252.0,178.0 255.0,177.7 258.0,177.4 261.0,177.1 264.0,176.8 267.0,176.5 270.0,176.2 273.0,175.9 276.0,175.6 279.0,175.4 282.0,175.1 285.0,174.9 288.0,174.7 291.0,174.5 294.0,174.4 297.0,174.3 300.0,174.2 303.0,174.3 306.0,174.3 309.0,174.5 312.0,174.8 315.0,175.1 318.0,175.5 321.0,176.0 324.0,176.5 327.0,177.1 330.0,177.6 333.0,178.0 336.0,178.5 339.0,178.8 342.0,179.1 345.0,179.4 348.0,179.6 351.0,179.7 354.0,179.7 357.0,179.6 360.0,179.4"/>
<polyline class="l2t" points="225.0,252.4 228.0,251.0 231.0,249.6 234.0,248.2 237.0,246.8 240.0,245.4 243.0,244.0 246.0,242.6 249.0,241.2 252.0,239.9 255.0,238.5 258.0,237.1 261.0,235.8 264.0,234.4 267.0,233.1 270.0,231.7 273.0,230.4 276.0,229.1 279.0,227.7 282.0,226.4 285.0,225.1 288.0,223.8 291.0,222.5 294.0,221.2 297.0,219.9 300.0,218.6 303.0,217.3 306.0,216.1 309.0,214.9 312.0,213.6 315.0,212.4 318.0,211.3 321.0,210.1 324.0,209.0 327.0,207.9 330.0,206.9 333.0,205.9 336.0,204.9 339.0,204.0 342.0,203.2 345.0,202.5 348.0,201.8 351.0,201.3 354.0,200.9 357.0,200.6 360.0,200.4" stroke-width="1.4"/>
<circle cx="225.0" cy="252.4" r="2.6" class="m2"/>
<polyline class="l2t" points="225.0,228.3 228.0,227.4 231.0,226.4 234.0,225.5 237.0,224.5 240.0,223.6 243.0,222.7 246.0,221.8 249.0,220.9 252.0,220.0 255.0,219.1 258.0,218.3 261.0,217.4 264.0,216.6 267.0,215.7 270.0,214.9 273.0,214.0 276.0,213.2 279.0,212.4 282.0,211.6 285.0,210.8 288.0,210.0 291.0,209.2 294.0,208.4 297.0,207.6 300.0,206.8 303.0,206.0 306.0,205.3 309.0,204.5 312.0,203.8 315.0,203.0 318.0,202.3 321.0,201.6 324.0,200.9 327.0,200.2 330.0,199.5 333.0,198.9 336.0,198.3 339.0,197.7 342.0,197.2 345.0,196.7 348.0,196.3 351.0,195.9 354.0,195.6 357.0,195.3 360.0,195.1" stroke-width="1.4"/>
<circle cx="225.0" cy="228.3" r="2.6" class="m2"/>
<polyline class="l2t" points="225.0,218.6 228.0,217.8 231.0,217.1 234.0,216.3 237.0,215.5 240.0,214.8 243.0,214.0 246.0,213.3 249.0,212.6 252.0,211.9 255.0,211.2 258.0,210.5 261.0,209.8 264.0,209.2 267.0,208.5 270.0,207.9 273.0,207.2 276.0,206.6 279.0,206.0 282.0,205.4 285.0,204.8 288.0,204.2 291.0,203.6 294.0,203.0 297.0,202.4 300.0,201.9 303.0,201.3 306.0,200.7 309.0,200.2 312.0,199.6 315.0,199.1 318.0,198.5 321.0,198.0 324.0,197.5 327.0,197.0 330.0,196.5 333.0,196.0 336.0,195.5 339.0,195.1 342.0,194.7 345.0,194.3 348.0,193.9 351.0,193.6 354.0,193.3 357.0,193.1 360.0,192.9" stroke-width="1.4"/>
<circle cx="225.0" cy="218.6" r="2.6" class="m2"/>
<polyline class="l2t" points="225.0,211.4 228.0,210.8 231.0,210.1 234.0,209.4 237.0,208.8 240.0,208.1 243.0,207.5 246.0,206.9 249.0,206.3 252.0,205.7 255.0,205.1 258.0,204.6 261.0,204.0 264.0,203.5 267.0,203.0 270.0,202.5 273.0,202.0 276.0,201.5 279.0,201.0 282.0,200.6 285.0,200.1 288.0,199.7 291.0,199.3 294.0,198.8 297.0,198.4 300.0,198.0 303.0,197.6 306.0,197.2 309.0,196.8 312.0,196.4 315.0,196.0 318.0,195.6 321.0,195.2 324.0,194.8 327.0,194.4 330.0,194.1 333.0,193.7 336.0,193.4 339.0,193.0 342.0,192.7 345.0,192.4 348.0,192.1 351.0,191.9 354.0,191.6 357.0,191.4 360.0,191.2" stroke-width="1.4"/>
<circle cx="225.0" cy="211.4" r="2.6" class="m2"/>
<polyline class="l2t" points="225.0,205.6 228.0,205.0 231.0,204.4 234.0,203.8 237.0,203.3 240.0,202.7 243.0,202.2 246.0,201.6 249.0,201.1 252.0,200.6 255.0,200.1 258.0,199.7 261.0,199.2 264.0,198.8 267.0,198.4 270.0,198.0 273.0,197.6 276.0,197.2 279.0,196.9 282.0,196.5 285.0,196.2 288.0,195.9 291.0,195.6 294.0,195.3 297.0,195.0 300.0,194.7 303.0,194.4 306.0,194.2 309.0,193.9 312.0,193.6 315.0,193.3 318.0,193.1 321.0,192.8 324.0,192.5 327.0,192.3 330.0,192.0 333.0,191.8 336.0,191.5 339.0,191.3 342.0,191.0 345.0,190.8 348.0,190.6 351.0,190.3 354.0,190.1 357.0,189.9 360.0,189.7" stroke-width="1.4"/>
<circle cx="225.0" cy="205.6" r="2.6" class="m2"/>
<polyline class="l2t" points="225.0,199.5 228.0,199.0 231.0,198.5 234.0,198.0 237.0,197.5 240.0,197.0 243.0,196.5 246.0,196.1 249.0,195.6 252.0,195.2 255.0,194.8 258.0,194.4 261.0,194.0 264.0,193.7 267.0,193.4 270.0,193.0 273.0,192.8 276.0,192.5 279.0,192.2 282.0,192.0 285.0,191.8 288.0,191.6 291.0,191.5 294.0,191.3 297.0,191.1 300.0,191.0 303.0,190.9 306.0,190.7 309.0,190.6 312.0,190.5 315.0,190.4 318.0,190.2 321.0,190.1 324.0,190.0 327.0,189.8 330.0,189.7 333.0,189.6 336.0,189.4 339.0,189.3 342.0,189.1 345.0,189.0 348.0,188.8 351.0,188.6 354.0,188.5 357.0,188.3 360.0,188.1" stroke-width="1.4"/>
<circle cx="225.0" cy="199.5" r="2.6" class="m2"/>
<polyline class="l2t" points="225.0,194.3 228.0,193.9 231.0,193.4 234.0,193.0 237.0,192.5 240.0,192.1 243.0,191.7 246.0,191.3 249.0,190.9 252.0,190.5 255.0,190.2 258.0,189.8 261.0,189.5 264.0,189.2 267.0,188.9 270.0,188.7 273.0,188.4 276.0,188.2 279.0,188.0 282.0,187.9 285.0,187.8 288.0,187.7 291.0,187.6 294.0,187.5 297.0,187.5 300.0,187.5 303.0,187.5 306.0,187.5 309.0,187.5 312.0,187.5 315.0,187.5 318.0,187.5 321.0,187.5 324.0,187.5 327.0,187.5 330.0,187.5 333.0,187.5 336.0,187.4 339.0,187.4 342.0,187.3 345.0,187.2 348.0,187.1 351.0,187.0 354.0,186.9 357.0,186.7 360.0,186.5" stroke-width="1.4"/>
<circle cx="225.0" cy="194.3" r="2.6" class="m2"/>
<polyline class="l2t" points="225.0,189.3 228.0,188.9 231.0,188.5 234.0,188.1 237.0,187.7 240.0,187.4 243.0,187.0 246.0,186.6 249.0,186.3 252.0,185.9 255.0,185.6 258.0,185.3 261.0,185.0 264.0,184.7 267.0,184.4 270.0,184.2 273.0,184.0 276.0,183.8 279.0,183.6 282.0,183.5 285.0,183.4 288.0,183.4 291.0,183.4 294.0,183.4 297.0,183.5 300.0,183.6 303.0,183.7 306.0,183.8 309.0,184.0 312.0,184.1 315.0,184.3 318.0,184.4 321.0,184.6 324.0,184.7 327.0,184.9 330.0,185.0 333.0,185.1 336.0,185.2 339.0,185.2 342.0,185.2 345.0,185.2 348.0,185.2 351.0,185.1 354.0,185.0 357.0,184.9 360.0,184.7" stroke-width="1.4"/>
<circle cx="225.0" cy="189.3" r="2.6" class="m2"/>
<polyline class="l2t" points="225.0,184.8 228.0,184.5 231.0,184.1 234.0,183.7 237.0,183.4 240.0,183.0 243.0,182.7 246.0,182.4 249.0,182.0 252.0,181.7 255.0,181.4 258.0,181.1 261.0,180.8 264.0,180.5 267.0,180.2 270.0,180.0 273.0,179.8 276.0,179.6 279.0,179.4 282.0,179.2 285.0,179.1 288.0,179.0 291.0,179.0 294.0,179.0 297.0,179.1 300.0,179.2 303.0,179.3 306.0,179.6 309.0,179.8 312.0,180.1 315.0,180.5 318.0,180.8 321.0,181.1 324.0,181.4 327.0,181.7 330.0,182.0 333.0,182.2 336.0,182.5 339.0,182.6 342.0,182.8 345.0,182.9 348.0,182.9 351.0,182.9 354.0,182.9 357.0,182.7 360.0,182.5" stroke-width="1.4"/>
<circle cx="225.0" cy="184.8" r="2.6" class="m2"/>
<polyline class="l2t" points="225.0,179.8 228.0,179.5 231.0,179.2 234.0,178.9 237.0,178.6 240.0,178.3 243.0,178.0 246.0,177.6 249.0,177.3 252.0,177.0 255.0,176.7 258.0,176.4 261.0,176.1 264.0,175.8 267.0,175.5 270.0,175.2 273.0,174.9 276.0,174.6 279.0,174.3 282.0,174.1 285.0,173.8 288.0,173.6 291.0,173.3 294.0,173.1 297.0,172.9 300.0,172.8 303.0,172.7 306.0,172.7 309.0,172.7 312.0,172.8 315.0,173.0 318.0,173.4 321.0,173.8 324.0,174.3 327.0,174.9 330.0,175.5 333.0,176.0 336.0,176.6 339.0,177.0 342.0,177.4 345.0,177.7 348.0,178.0 351.0,178.1 354.0,178.1 357.0,178.1 360.0,177.9" stroke-width="1.4"/>
<circle cx="225.0" cy="179.8" r="2.6" class="m2"/>
<polyline class="l2t" points="225.0,174.5 228.0,174.2 231.0,173.9 234.0,173.7 237.0,173.4 240.0,173.1 243.0,172.8 246.0,172.5 249.0,172.2 252.0,171.9 255.0,171.6 258.0,171.3 261.0,171.0 264.0,170.6 267.0,170.3 270.0,169.9 273.0,169.5 276.0,169.1 279.0,168.7 282.0,168.2 285.0,167.8 288.0,167.3 291.0,166.7 294.0,166.1 297.0,165.4 300.0,164.7 303.0,163.8 306.0,162.9 309.0,161.9 312.0,160.8 315.0,159.7 318.0,158.5 321.0,157.3 324.0,156.1 327.0,154.9 330.0,153.8 333.0,152.6 336.0,151.6 339.0,150.5 342.0,149.5 345.0,148.6 348.0,147.7 351.0,146.8 354.0,146.0 357.0,145.3 360.0,144.6" stroke-width="1.4"/>
<circle cx="225.0" cy="174.5" r="2.6" class="m2"/>
<polyline class="l2t" points="225.0,168.0 228.0,167.8 231.0,167.6 234.0,167.4 237.0,167.1 240.0,166.9 243.0,166.6 246.0,166.4 249.0,166.1 252.0,165.8 255.0,165.5 258.0,165.1 261.0,164.8 264.0,164.4 267.0,164.0 270.0,163.6 273.0,163.1 276.0,162.6 279.0,162.1 282.0,161.5 285.0,160.8 288.0,160.1 291.0,159.4 294.0,158.6 297.0,157.8 300.0,156.9 303.0,156.0 306.0,155.0 309.0,154.1 312.0,153.1 315.0,152.1 318.0,151.2 321.0,150.2 324.0,149.3 327.0,148.4 330.0,147.4 333.0,146.5 336.0,145.7 339.0,144.8 342.0,143.9 345.0,143.1 348.0,142.3 351.0,141.5 354.0,140.8 357.0,140.0 360.0,139.3" stroke-width="1.4"/>
<circle cx="225.0" cy="168.0" r="2.6" class="m2"/>
<polyline class="l2t" points="225.0,161.4 228.0,161.3 231.0,161.1 234.0,160.9 237.0,160.8 240.0,160.6 243.0,160.3 246.0,160.1 249.0,159.9 252.0,159.6 255.0,159.3 258.0,159.0 261.0,158.6 264.0,158.2 267.0,157.8 270.0,157.4 273.0,156.9 276.0,156.4 279.0,155.8 282.0,155.2 285.0,154.6 288.0,154.0 291.0,153.3 294.0,152.5 297.0,151.8 300.0,151.1 303.0,150.3 306.0,149.5 309.0,148.8 312.0,148.0 315.0,147.2 318.0,146.4 321.0,145.7 324.0,144.9 327.0,144.1 330.0,143.4 333.0,142.6 336.0,141.9 339.0,141.1 342.0,140.4 345.0,139.6 348.0,138.9 351.0,138.1 354.0,137.4 357.0,136.6 360.0,135.9" stroke-width="1.4"/>
<circle cx="225.0" cy="161.4" r="2.6" class="m2"/>
<polyline class="l2t" points="225.0,153.7 228.0,153.6 231.0,153.5 234.0,153.4 237.0,153.3 240.0,153.2 243.0,153.0 246.0,152.9 249.0,152.7 252.0,152.4 255.0,152.2 258.0,151.9 261.0,151.6 264.0,151.3 267.0,150.9 270.0,150.6 273.0,150.2 276.0,149.7 279.0,149.2 282.0,148.8 285.0,148.3 288.0,147.7 291.0,147.2 294.0,146.6 297.0,146.1 300.0,145.5 303.0,145.0 306.0,144.4 309.0,143.8 312.0,143.2 315.0,142.6 318.0,142.0 321.0,141.4 324.0,140.8 327.0,140.2 330.0,139.6 333.0,138.9 336.0,138.3 339.0,137.7 342.0,137.0 345.0,136.3 348.0,135.6 351.0,134.9 354.0,134.2 357.0,133.5 360.0,132.7" stroke-width="1.4"/>
<circle cx="225.0" cy="153.7" r="2.6" class="m2"/>
<polyline class="l2t" points="225.0,141.8 228.0,141.9 231.0,142.0 234.0,142.0 237.0,142.0 240.0,142.0 243.0,142.0 246.0,142.0 249.0,141.9 252.0,141.8 255.0,141.7 258.0,141.6 261.0,141.4 264.0,141.3 267.0,141.1 270.0,140.9 273.0,140.7 276.0,140.5 279.0,140.2 282.0,140.0 285.0,139.7 288.0,139.4 291.0,139.1 294.0,138.9 297.0,138.6 300.0,138.3 303.0,137.9 306.0,137.6 309.0,137.3 312.0,136.9 315.0,136.6 318.0,136.2 321.0,135.8 324.0,135.5 327.0,135.0 330.0,134.6 333.0,134.1 336.0,133.7 339.0,133.1 342.0,132.6 345.0,132.0 348.0,131.4 351.0,130.8 354.0,130.1 357.0,129.4 360.0,128.6" stroke-width="1.4"/>
<circle cx="225.0" cy="141.8" r="2.6" class="m2"/>
<polyline class="l2t" points="225.0,115.6 228.0,116.1 231.0,116.5 234.0,117.0 237.0,117.4 240.0,117.9 243.0,118.3 246.0,118.7 249.0,119.1 252.0,119.4 255.0,119.8 258.0,120.2 261.0,120.5 264.0,120.8 267.0,121.2 270.0,121.5 273.0,121.8 276.0,122.1 279.0,122.4 282.0,122.7 285.0,123.0 288.0,123.2 291.0,123.5 294.0,123.7 297.0,123.9 300.0,124.2 303.0,124.4 306.0,124.5 309.0,124.7 312.0,124.8 315.0,124.9 318.0,125.0 321.0,125.1 324.0,125.1 327.0,125.0 330.0,125.0 333.0,124.8 336.0,124.6 339.0,124.4 342.0,124.1 345.0,123.7 348.0,123.2 351.0,122.7 354.0,122.1 357.0,121.4 360.0,120.6" stroke-width="1.4"/>
<circle cx="225.0" cy="115.6" r="2.6" class="m2"/>
</g>
<line x1="225.0" y1="62.0" x2="225.0" y2="306.0" class="op"/>
<text class="lab hl" x="220.0" y="76.0" text-anchor="end">s_target = 55</text>
<text class="lab" x="60.0" y="320.0" text-anchor="middle">0</text>
<text class="lab" x="135.0" y="320.0" text-anchor="middle">0.25</text>
<text class="lab" x="210.0" y="320.0" text-anchor="middle">0.5</text>
<text class="lab" x="285.0" y="320.0" text-anchor="middle">0.75</text>
<text class="lab" x="360.0" y="320.0" text-anchor="middle">1</text>
<text class="lab" x="54.0" y="310.0" text-anchor="end">-1</text>
<text class="lab" x="54.0" y="261.2" text-anchor="end">-0.5</text>
<text class="lab" x="54.0" y="212.4" text-anchor="end">0</text>
<text class="lab" x="54.0" y="163.6" text-anchor="end">0.5</text>
<text class="lab" x="54.0" y="114.8" text-anchor="end">1</text>
<text class="lab" x="54.0" y="66.0" text-anchor="end">1.5</text>
<text class="lab" x="210.0" y="336.0" text-anchor="middle">flow time t  (t = 0 noise, t = 1 source-like)</text>
<text class="lab" x="22.0" y="184.0" text-anchor="middle" transform="rotate(-90 22 184.0)">pixel intensity z_t</text>
<text class="lab hl" x="66.0" y="296.2">reference trajectories from z₀ ~ N(0, σ²)</text>
<text class="lab hl" x="354.0" y="105.2" text-anchor="end">tissue mode</text>
<text class="lab hl" x="354.0" y="222.9" text-anchor="end">background mode</text>
<rect x="420.0" y="62.0" width="252.0" height="244.0" class="box"/>
<line x1="420.0" y1="306.0" x2="672.0" y2="306.0" class="gd"/>
<text class="lab" x="414.0" y="310.0" text-anchor="end">0</text>
<line x1="420.0" y1="247.5" x2="672.0" y2="247.5" class="gd"/>
<text class="lab" x="414.0" y="251.5" text-anchor="end">0.25</text>
<line x1="420.0" y1="189.0" x2="672.0" y2="189.0" class="gd"/>
<text class="lab" x="414.0" y="193.0" text-anchor="end">0.5</text>
<line x1="420.0" y1="130.5" x2="672.0" y2="130.5" class="gd"/>
<text class="lab" x="414.0" y="134.5" text-anchor="end">0.75</text>
<line x1="420.0" y1="72.0" x2="672.0" y2="72.0" class="gd"/>
<text class="lab" x="414.0" y="76.0" text-anchor="end">1</text>
<text class="lab" x="451.5" y="320.0" text-anchor="middle">-0.5</text>
<text class="lab" x="504.0" y="320.0" text-anchor="middle">0</text>
<text class="lab" x="556.5" y="320.0" text-anchor="middle">0.5</text>
<text class="lab" x="609.0" y="320.0" text-anchor="middle">1</text>
<text class="lab" x="661.5" y="320.0" text-anchor="middle">1.5</text>
<polyline class="lg" points="420.0,305.9 420.6,305.9 421.3,305.9 421.9,305.9 422.5,305.9 423.2,305.9 423.8,305.9 424.4,305.9 425.1,305.9 425.7,305.9 426.3,305.9 426.9,305.9 427.6,305.8 428.2,305.8 428.8,305.8 429.5,305.8 430.1,305.8 430.7,305.8 431.4,305.8 432.0,305.8 432.6,305.8 433.3,305.8 433.9,305.8 434.5,305.8 435.2,305.8 435.8,305.8 436.4,305.8 437.1,305.8 437.7,305.8 438.3,305.8 438.9,305.8 439.6,305.8 440.2,305.6 440.8,305.6 441.5,305.5 442.1,305.5 442.7,305.4 443.4,305.2 444.0,305.2 444.6,305.2 445.3,305.2 445.9,305.2 446.5,305.1 447.2,304.9 447.8,304.9 448.4,304.7 449.1,304.5 449.7,304.5 450.3,304.5 450.9,304.4 451.6,304.4 452.2,304.4 452.8,304.3 453.5,304.1 454.1,304.1 454.7,304.1 455.4,304.0 456.0,303.8 456.6,303.6 457.3,303.4 457.9,303.3 458.5,303.0 459.2,302.8 459.8,302.7 460.4,302.3 461.1,302.2 461.7,301.7 462.3,301.5 462.9,301.5 463.6,301.1 464.2,300.8 464.8,300.4 465.5,300.1 466.1,300.0 466.7,299.9 467.4,299.7 468.0,299.2 468.6,298.9 469.3,298.8 469.9,298.5 470.5,298.3 471.2,297.8 471.8,297.6 472.4,297.2 473.1,296.6 473.7,296.3 474.3,295.6 474.9,295.1 475.6,294.6 476.2,294.4 476.8,294.1 477.5,293.5 478.1,292.9 478.7,292.6 479.4,292.0 480.0,291.3 480.6,290.7 481.3,290.4 481.9,289.3 482.5,288.6 483.2,287.7 483.8,286.5 484.4,285.5 485.1,284.6 485.7,284.1 486.3,283.7 486.9,282.7 487.6,282.1 488.2,281.2 488.8,280.5 489.5,279.4 490.1,278.4 490.7,277.3 491.4,276.2 492.0,275.0 492.6,273.6 493.3,272.7 493.9,271.3 494.5,269.8 495.2,268.9 495.8,267.4 496.4,266.1 497.1,264.9 497.7,263.7 498.3,262.1 498.9,260.7 499.6,259.6 500.2,258.4 500.8,257.6 501.5,256.1 502.1,254.8 502.7,253.2 503.4,251.8 504.0,250.3 504.6,248.8 505.3,247.2 505.9,245.1 506.5,243.5 507.2,241.9 507.8,240.5 508.4,239.0 509.1,237.7 509.7,236.7 510.3,235.2 510.9,233.9 511.6,232.2 512.2,230.7 512.8,229.2 513.5,227.6 514.1,225.7 514.7,224.5 515.4,222.8 516.0,220.5 516.6,219.0 517.3,216.9 517.9,215.4 518.5,213.5 519.2,211.9 519.8,209.9 520.4,208.0 521.1,206.0 521.7,204.4 522.3,202.5 522.9,200.9 523.6,199.1 524.2,197.7 524.8,195.3 525.5,193.6 526.1,191.2 526.7,189.0 527.4,186.7 528.0,185.1 528.6,183.3 529.3,181.7 529.9,179.8 530.5,177.6 531.2,175.7 531.8,173.4 532.4,171.8 533.1,170.2 533.7,168.5 534.3,167.1 534.9,165.5 535.6,163.4 536.2,161.9 536.8,160.8 537.5,159.0 538.1,157.5 538.7,156.1 539.4,154.1 540.0,152.3 540.6,150.3 541.3,148.8 541.9,147.2 542.5,145.9 543.2,144.8 543.8,143.6 544.4,142.0 545.1,140.4 545.7,139.0 546.3,137.8 546.9,136.6 547.6,135.4 548.2,133.6 548.8,132.5 549.5,131.1 550.1,129.3 550.7,128.0 551.4,126.6 552.0,125.1 552.6,123.9 553.3,122.4 553.9,121.3 554.5,120.3 555.2,119.0 555.8,118.2 556.4,117.4 557.1,116.4 557.7,114.6 558.3,113.7 558.9,112.4 559.6,111.5 560.2,110.1 560.8,108.9 561.5,107.6 562.1,106.3 562.7,105.1 563.4,103.8 564.0,102.9 564.6,102.0 565.3,101.3 565.9,100.3 566.5,99.4 567.2,98.4 567.8,97.0 568.4,96.2 569.1,95.8 569.7,95.1 570.3,94.6 570.9,93.8 571.6,93.4 572.2,92.7 572.8,92.0 573.5,91.8 574.1,91.2 574.7,90.5 575.4,90.1 576.0,89.1 576.6,88.3 577.3,87.6 577.9,87.3 578.5,86.6 579.2,86.1 579.8,85.3 580.4,84.8 581.1,84.3 581.7,84.0 582.3,83.6 582.9,83.3 583.6,82.9 584.2,82.6 584.8,82.1 585.5,81.7 586.1,81.2 586.7,81.0 587.4,80.6 588.0,80.4 588.6,80.1 589.3,79.8 589.9,79.3 590.5,79.1 591.2,78.8 591.8,78.6 592.4,78.3 593.1,78.1 593.7,77.8 594.3,77.4 594.9,76.9 595.6,76.7 596.2,76.6 596.8,76.3 597.5,76.0 598.1,75.8 598.7,75.7 599.4,75.5 600.0,75.3 600.6,75.2 601.3,75.2 601.9,75.0 602.5,74.9 603.2,74.5 603.8,74.4 604.4,74.3 605.1,74.0 605.7,74.0 606.3,73.9 606.9,73.8 607.6,73.8 608.2,73.7 608.8,73.7 609.5,73.5 610.1,73.3 610.7,73.3 611.4,73.2 612.0,73.0 612.6,73.0 613.3,72.8 613.9,72.8 614.5,72.6 615.2,72.6 615.8,72.6 616.4,72.4 617.1,72.4 617.7,72.4 618.3,72.4 618.9,72.4 619.6,72.4 620.2,72.2 620.8,72.2 621.5,72.2 622.1,72.2 622.7,72.2 623.4,72.2 624.0,72.2 624.6,72.2 625.3,72.2 625.9,72.2 626.5,72.2 627.2,72.2 627.8,72.2 628.4,72.2 629.1,72.2 629.7,72.2 630.3,72.1 630.9,72.1 631.6,72.0 632.2,72.0 632.8,72.0 633.5,72.0 634.1,72.0 634.7,72.0 635.4,72.0 636.0,72.0 636.6,72.0 637.3,72.0 637.9,72.0 638.5,72.0 639.2,72.0 639.8,72.0 640.4,72.0 641.1,72.0 641.7,72.0 642.3,72.0 642.9,72.0 643.6,72.0 644.2,72.0 644.8,72.0 645.5,72.0 646.1,72.0 646.7,72.0 647.4,72.0 648.0,72.0 648.6,72.0 649.3,72.0 649.9,72.0 650.5,72.0 651.2,72.0 651.8,72.0 652.4,72.0 653.1,72.0 653.7,72.0 654.3,72.0 654.9,72.0 655.6,72.0 656.2,72.0 656.8,72.0 657.5,72.0 658.1,72.0 658.7,72.0 659.4,72.0 660.0,72.0 660.6,72.0 661.3,72.0 661.9,72.0 662.5,72.0 663.2,72.0 663.8,72.0 664.4,72.0 665.1,72.0 665.7,72.0 666.3,72.0 666.9,72.0 667.6,72.0 668.2,72.0 668.8,72.0 669.5,72.0 670.1,72.0 670.7,72.0 671.4,72.0 672.0,72.0" stroke-width="2"/>
<polyline class="l2" points="420.0,306.0 420.6,306.0 421.3,306.0 421.9,306.0 422.5,306.0 423.2,306.0 423.8,306.0 424.4,306.0 425.1,306.0 425.7,306.0 426.3,306.0 426.9,306.0 427.6,306.0 428.2,306.0 428.8,306.0 429.5,306.0 430.1,306.0 430.7,306.0 431.4,306.0 432.0,306.0 432.6,306.0 433.3,306.0 433.9,306.0 434.5,306.0 435.2,306.0 435.8,306.0 436.4,306.0 437.1,306.0 437.7,306.0 438.3,306.0 438.9,306.0 439.6,306.0 440.2,306.0 440.8,306.0 441.5,306.0 442.1,306.0 442.7,306.0 443.4,306.0 444.0,306.0 444.6,306.0 445.3,306.0 445.9,306.0 446.5,306.0 447.2,306.0 447.8,306.0 448.4,306.0 449.1,306.0 449.7,306.0 450.3,306.0 450.9,306.0 451.6,306.0 452.2,306.0 452.8,306.0 453.5,306.0 454.1,306.0 454.7,306.0 455.4,306.0 456.0,306.0 456.6,306.0 457.3,306.0 457.9,306.0 458.5,306.0 459.2,306.0 459.8,306.0 460.4,306.0 461.1,306.0 461.7,306.0 462.3,306.0 462.9,306.0 463.6,306.0 464.2,306.0 464.8,306.0 465.5,306.0 466.1,306.0 466.7,306.0 467.4,306.0 468.0,306.0 468.6,306.0 469.3,306.0 469.9,306.0 470.5,306.0 471.2,306.0 471.8,306.0 472.4,306.0 473.1,306.0 473.7,306.0 474.3,306.0 474.9,306.0 475.6,306.0 476.2,306.0 476.8,306.0 477.5,306.0 478.1,306.0 478.7,306.0 479.4,306.0 480.0,306.0 480.6,306.0 481.3,306.0 481.9,306.0 482.5,306.0 483.2,306.0 483.8,306.0 484.4,306.0 485.1,306.0 485.7,306.0 486.3,306.0 486.9,306.0 487.6,306.0 488.2,306.0 488.8,306.0 489.5,306.0 490.1,306.0 490.7,306.0 491.4,306.0 492.0,306.0 492.6,306.0 493.3,306.0 493.9,306.0 494.5,306.0 495.2,306.0 495.8,306.0 496.4,306.0 497.1,306.0 497.7,306.0 498.3,306.0 498.9,306.0 499.6,306.0 500.2,306.0 500.8,306.0 501.5,306.0 502.1,306.0 502.7,306.0 503.4,306.0 504.0,306.0 504.6,306.0 505.3,306.0 505.9,306.0 506.5,306.0 507.2,306.0 507.8,306.0 508.4,306.0 509.1,306.0 509.7,306.0 510.3,306.0 510.9,306.0 511.6,306.0 512.2,306.0 512.8,306.0 513.5,306.0 514.1,306.0 514.7,306.0 515.4,306.0 516.0,306.0 516.6,306.0 517.3,306.0 517.9,306.0 518.5,306.0 519.2,306.0 519.8,306.0 520.4,306.0 521.1,306.0 521.7,306.0 522.3,306.0 522.9,306.0 523.6,306.0 524.2,306.0 524.8,306.0 525.5,306.0 526.1,306.0 526.7,306.0 527.4,306.0 528.0,306.0 528.6,306.0 529.3,306.0 529.9,306.0 530.5,306.0 531.2,306.0 531.8,306.0 532.4,306.0 533.1,306.0 533.7,306.0 534.3,306.0 534.9,306.0 535.6,306.0 536.2,306.0 536.8,306.0 537.5,306.0 538.1,306.0 538.7,305.9 539.4,305.9 540.0,305.9 540.6,305.9 541.3,305.7 541.9,305.7 542.5,305.7 543.2,305.6 543.8,305.4 544.4,305.1 545.1,305.1 545.7,305.1 546.3,304.6 546.9,304.4 547.6,303.8 548.2,303.2 548.8,302.7 549.5,301.8 550.1,300.9 550.7,299.8 551.4,299.1 552.0,298.4 552.6,296.9 553.3,295.4 553.9,294.2 554.5,292.8 555.2,291.2 555.8,289.5 556.4,286.7 557.1,284.3 557.7,282.1 558.3,280.3 558.9,277.4 559.6,274.0 560.2,271.9 560.8,269.3 561.5,266.1 562.1,262.4 562.7,259.3 563.4,255.8 564.0,251.9 564.6,248.3 565.3,245.3 565.9,242.1 566.5,239.1 567.2,236.3 567.8,233.5 568.4,230.3 569.1,226.1 569.7,222.8 570.3,220.2 570.9,217.2 571.6,214.4 572.2,211.6 572.8,208.9 573.5,206.5 574.1,203.6 574.7,200.5 575.4,198.5 576.0,196.3 576.6,194.3 577.3,192.0 577.9,189.5 578.5,188.2 579.2,185.9 579.8,183.5 580.4,181.8 581.1,180.1 581.7,178.1 582.3,175.8 582.9,173.6 583.6,172.4 584.2,170.7 584.8,168.8 585.5,167.1 586.1,165.7 586.7,164.2 587.4,162.6 588.0,160.8 588.6,159.0 589.3,157.1 589.9,155.7 590.5,154.4 591.2,152.8 591.8,152.0 592.4,150.9 593.1,150.0 593.7,148.7 594.3,147.7 594.9,147.0 595.6,145.2 596.2,143.9 596.8,142.7 597.5,141.5 598.1,139.9 598.7,138.8 599.4,138.1 600.0,137.1 600.6,136.0 601.3,134.9 601.9,134.5 602.5,133.7 603.2,132.9 603.8,132.1 604.4,131.3 605.1,130.4 605.7,129.3 606.3,128.4 606.9,127.5 607.6,126.8 608.2,126.2 608.8,125.3 609.5,124.7 610.1,123.6 610.7,122.5 611.4,122.2 612.0,121.4 612.6,120.8 613.3,119.7 613.9,119.1 614.5,118.4 615.2,117.5 615.8,116.8 616.4,116.1 617.1,115.1 617.7,114.7 618.3,114.3 618.9,113.7 619.6,113.3 620.2,113.0 620.8,112.2 621.5,111.6 622.1,111.1 622.7,110.7 623.4,110.3 624.0,109.7 624.6,109.0 625.3,108.3 625.9,107.6 626.5,107.1 627.2,106.2 627.8,105.9 628.4,105.4 629.1,104.6 629.7,104.1 630.3,103.4 630.9,103.1 631.6,102.6 632.2,101.8 632.8,101.3 633.5,100.7 634.1,100.4 634.7,99.8 635.4,99.4 636.0,99.0 636.6,98.3 637.3,97.7 637.9,97.3 638.5,97.0 639.2,96.7 639.8,96.3 640.4,95.9 641.1,95.6 641.7,95.1 642.3,94.5 642.9,94.2 643.6,93.6 644.2,93.2 644.8,92.9 645.5,92.7 646.1,92.6 646.7,92.1 647.4,91.8 648.0,91.3 648.6,91.1 649.3,90.7 649.9,90.3 650.5,90.0 651.2,89.5 651.8,89.2 652.4,88.9 653.1,88.7 653.7,88.3 654.3,87.9 654.9,87.5 655.6,87.3 656.2,87.0 656.8,86.8 657.5,86.5 658.1,86.1 658.7,86.0 659.4,85.9 660.0,85.7 660.6,85.5 661.3,85.3 661.9,85.3 662.5,85.1 663.2,84.9 663.8,84.6 664.4,84.2 665.1,84.0 665.7,83.7 666.3,83.7 666.9,83.3 667.6,83.2 668.2,83.1 668.8,82.9 669.5,82.7 670.1,82.4 670.7,82.1 671.4,82.0 672.0,81.9"/>
<line x1="558.9" y1="277.9" x2="494.3" y2="277.9" class="arr"/>
<polygon class="ah" points="494.3,277.9 499.8,275.6 499.8,280.3"/>
<circle cx="558.9" cy="277.9" r="2.6" class="m2"/>
<line x1="569.4" y1="224.1" x2="518.8" y2="224.1" class="arr"/>
<polygon class="ah" points="518.8,224.1 524.4,221.8 524.4,226.4"/>
<circle cx="569.4" cy="224.1" r="2.6" class="m2"/>
<line x1="586.2" y1="165.6" x2="538.9" y2="165.6" class="arr"/>
<polygon class="ah" points="538.9,165.6 544.4,163.3 544.4,167.9"/>
<circle cx="586.2" cy="165.6" r="2.6" class="m2"/>
<line x1="626.5" y1="107.1" x2="565.8" y2="107.1" class="arr"/>
<polygon class="ah" points="565.8,107.1 571.3,104.8 571.3,109.4"/>
<circle cx="626.5" cy="107.1" r="2.6" class="m2"/>
<text class="lab t2 hl" x="668.8" y="287.3" text-anchor="end">F_ζ: noisy test image</text>
<text class="lab hl" x="424.2" y="88.4">F_ref: mean marginal</text>
<text class="lab hl" x="424.2" y="102.4">at step 55</text>
<text class="lab" x="546.0" y="336.0" text-anchor="middle">intensity</text>
<text class="lab" x="384.0" y="184.0" text-anchor="middle" transform="rotate(-90 384 184.0)">CDF</text>
<text class="lab" x="26.0" y="366.0">Histogram matching is the monotone (W₂-optimal) map between 1-D marginals. No data-fidelity term follows:</text>
<text class="lab" x="26.0" y="382.0">the patient enters only through the entry state. In this toy 85% of pixels end in their true mode.</text>
</svg>
