<svg viewBox="0 0 700 410" xmlns="http://www.w3.org/2000/svg" role="img">
<title>Interpolated normalisation statistics remove tile seams</title>
<desc>Three stacked strips share a horizontal pixel axis spanning three adjacent tiles. The top strip shows an input intensity profile x(p) that drifts upward across the slide, with one flat per-tile mean per tile drawn as orange steps and a blue line that linearly interpolates those means between tile centres. The middle strip shows per-tile instance normalisation: each tile is normalised by its own statistics, so the output jumps sharply at both tile borders. The bottom strip shows normalisation by the interpolated mean and standard deviation fields: the output is a smooth, stationary texture with no jump at the borders.</desc>
<style>
  text{font-family:ui-sans-serif,-apple-system,"Segoe UI",sans-serif;font-weight:400}
  .lab{font-size:11px;fill:#57564f} .hd{font-size:13px;font-weight:500;fill:#1a1a19}
  .sub{font-size:11.5px;fill:#57564f} .big{font-size:12.5px;font-weight:500;fill:#1a1a19}
  .c1{fill:#2f6fb5;stroke:none} .c2{fill:#c8702f;stroke:none} .c3{fill:#8a8880;stroke:none}
  .m1{fill:#2f6fb5;stroke:#fbfaf6;stroke-width:1.4} .m2{fill:#c8702f;stroke:#fbfaf6;stroke-width:1.4}
  .sep{stroke:#1a1a19;stroke-width:1.6;fill:none}
  .ell{fill:none;stroke:#8a8880;stroke-width:1.2}
  .eucl{fill:none;stroke:#8a8880;stroke-width:1.2;stroke-dasharray:4 3}
  .maha{fill:none;stroke:#2f6fb5;stroke-width:1.3;stroke-dasharray:4 3}
  .vec{stroke:#1a1a19;stroke-width:1.6;fill:none}
  .pt{fill:#1a1a19;stroke:#fbfaf6;stroke-width:1.2}
  .arr{stroke:#8a8880;stroke-width:1;fill:none;opacity:0.75}
  .box{fill:none;stroke:#e2e1da;stroke-width:1}
  .ax{stroke:#c3c2b7;stroke-width:0.8;fill:none}
  .gd{stroke:#e2e1da;stroke-width:0.6;fill:none;stroke-dasharray:3 3}
  .l1{fill:none;stroke:#2f6fb5;stroke-width:2}
  .l2{fill:none;stroke:#c8702f;stroke-width:2}
  .op{stroke:#1a1a19;stroke-width:1.2;stroke-dasharray:4 3;fill:none}
  @media (prefers-color-scheme: dark){
    .lab{fill:#b6b4ab} .hd{fill:#eceae3} .sub{fill:#b6b4ab} .big{fill:#eceae3}
    .box{stroke:#33312e} .ax{stroke:#4a4844} .gd{stroke:#33312e}
    .c1{fill:#7fb2e8} .c2{fill:#e09a5f} .c3{fill:#85837b}
    .m1{fill:#7fb2e8;stroke:#1c1b19} .m2{fill:#e09a5f;stroke:#1c1b19}
    .sep{stroke:#eceae3} .ell{stroke:#85837b} .eucl{stroke:#85837b}
    .maha{stroke:#7fb2e8} .vec{stroke:#eceae3} .pt{fill:#eceae3;stroke:#1c1b19}
    .arr{stroke:#85837b} .l1{stroke:#7fb2e8} .l2{stroke:#e09a5f} .op{stroke:#eceae3}
  }
</style>
<text x="350" y="24" text-anchor="middle" class="hd">Interpolating per-tile statistics into a smooth field removes the seams per-tile instance norm creates</text>
<rect x="80.0" y="58.0" width="510.0" height="102.0" class="box" rx="3"/>
<rect x="80.0" y="190.0" width="510.0" height="82.0" class="box" rx="3"/>
<rect x="80.0" y="302.0" width="510.0" height="82.0" class="box" rx="3"/>
<line x1="250.0" y1="58.0" x2="250.0" y2="384.0" class="gd"/>
<line x1="420.0" y1="58.0" x2="420.0" y2="384.0" class="gd"/>
<polyline points="80.0,150.3 81.7,149.2 83.4,148.1 85.1,147.1 86.8,146.3 88.5,145.7 90.2,145.4 91.9,145.3 93.6,145.4 95.3,145.7 97.0,146.3 98.7,146.9 100.4,147.6 102.1,148.3 103.8,148.9 105.5,149.3 107.2,149.6 108.9,149.6 110.6,149.3 112.3,148.8 114.0,148.0 115.7,147.1 117.4,145.9 119.1,144.7 120.8,143.4 122.5,142.2 124.2,141.1 125.9,140.1 127.6,139.4 129.3,139.0 131.0,138.8 132.7,138.9 134.4,139.3 136.1,139.9 137.8,140.7 139.5,141.5 141.2,142.3 142.9,143.1 144.6,143.7 146.3,144.1 148.0,144.2 149.7,144.0 151.4,143.5 153.1,142.8 154.8,141.7 156.5,140.5 158.2,139.1 159.9,137.7 161.6,136.3 163.3,135.1 165.0,134.0 166.7,133.1 168.4,132.6 170.1,132.4 171.8,132.5 173.5,132.9 175.2,133.5 176.9,134.4 178.6,135.3 180.3,136.3 182.0,137.2 183.7,138.0 185.4,138.5 187.1,138.8 188.8,138.7 190.5,138.3 192.2,137.5 193.9,136.5 195.6,135.2 197.3,133.7 199.0,132.1 200.7,130.6 202.4,129.1 204.1,127.9 205.8,126.9 207.5,126.2 209.2,125.9 210.9,126.0 212.6,126.4 214.3,127.1 216.0,128.0 217.7,129.1 219.4,130.2 221.1,131.3 222.8,132.2 224.5,132.9 226.2,133.3 227.9,133.4 229.6,133.0 231.3,132.3 233.0,131.2 234.7,129.9 236.4,128.3 238.1,126.6 239.8,124.9 241.5,123.3 243.2,121.9 244.9,120.7 246.6,119.9 248.3,119.5 250.0,119.5 251.7,119.9 253.4,120.6 255.1,121.6 256.8,122.8 258.5,124.0 260.2,125.3 261.9,126.4 263.6,127.3 265.3,127.8 267.0,128.0 268.7,127.7 270.4,127.1 272.1,126.0 273.8,124.6 275.5,123.0 277.2,121.1 278.9,119.3 280.6,117.5 282.3,115.9 284.0,114.6 285.7,113.6 287.4,113.1 289.1,113.0 290.8,113.3 292.5,114.1 294.2,115.1 295.9,116.4 297.6,117.8 299.3,119.2 301.0,120.5 302.7,121.5 304.4,122.3 306.1,122.6 307.8,122.4 309.5,121.9 311.2,120.8 312.9,119.4 314.6,117.7 316.3,115.8 318.0,113.8 319.7,111.8 321.4,110.0 323.1,108.5 324.8,107.4 326.5,106.7 328.2,106.5 329.9,106.8 331.6,107.5 333.3,108.6 335.0,109.9 336.7,111.5 338.4,113.0 340.1,114.5 341.8,115.7 343.5,116.6 345.2,117.1 346.9,117.1 348.6,116.6 350.3,115.7 352.0,114.2 353.7,112.5 355.4,110.4 357.1,108.3 358.8,106.2 360.5,104.2 362.2,102.5 363.9,101.2 365.6,100.4 367.3,100.1 369.0,100.2 370.7,100.9 372.4,102.0 374.1,103.4 375.8,105.1 377.5,106.8 379.2,108.4 380.9,109.9 382.6,111.0 384.3,111.6 386.0,111.8 387.7,111.4 389.4,110.5 391.1,109.1 392.8,107.3 394.5,105.2 396.2,102.9 397.9,100.7 399.6,98.5 401.3,96.6 403.0,95.1 404.7,94.1 406.4,93.6 408.1,93.7 409.8,94.3 411.5,95.4 413.2,96.9 414.9,98.6 416.6,100.5 418.3,102.3 420.0,103.9 421.7,105.2 423.4,106.1 425.1,106.4 426.8,106.2 428.5,105.3 430.2,104.0 431.9,102.2 433.6,100.0 435.3,97.6 437.0,95.2 438.7,92.9 440.4,90.8 442.1,89.1 443.8,87.9 445.5,87.2 447.2,87.2 448.9,87.7 450.6,88.8 452.3,90.3 454.0,92.1 455.7,94.1 457.4,96.1 459.1,97.9 460.8,99.4 462.5,100.4 464.2,101.0 465.9,100.9 467.6,100.2 469.3,98.9 471.0,97.1 472.7,94.9 474.4,92.4 476.1,89.8 477.8,87.3 479.5,85.0 481.2,83.1 482.9,81.7 484.6,80.9 486.3,80.7 488.0,81.1 489.7,82.1 491.4,83.6 493.1,85.5 494.8,87.6 496.5,89.7 498.2,91.7 499.9,93.5 501.6,94.7 503.3,95.5 505.0,95.6 506.7,95.0 508.4,93.8 510.1,92.0 511.8,89.8 513.5,87.2 515.2,84.5 516.9,81.8 518.6,79.3 520.3,77.2 522.0,75.6 523.7,74.5 525.4,74.2 527.1,74.5 528.8,75.4 530.5,76.9 532.2,78.9 533.9,81.1 535.6,83.3 537.3,85.5 539.0,87.5 540.7,89.0 542.4,89.9 544.1,90.2 545.8,89.8 547.5,88.7 549.2,87.0 550.9,84.8 552.6,82.1 554.3,79.3 556.0,76.4 557.7,73.7 559.4,71.4 561.1,69.5 562.8,68.3 564.5,67.7 566.2,67.9 567.9,68.7 569.6,70.2 571.3,72.2 573.0,74.4 574.7,76.9 576.4,79.3 578.1,81.4 579.8,83.1 581.5,84.3 583.2,84.8 584.9,84.6 586.6,83.6 588.3,82.0" class="ell"/>
<line x1="81.0" y1="137.4" x2="249.0" y2="137.4" class="l2"/>
<line x1="251.0" y1="111.9" x2="419.0" y2="111.9" class="l2"/>
<line x1="421.0" y1="87.1" x2="589.0" y2="87.1" class="l2"/>
<polyline points="80.0,150.2 83.4,149.6 86.8,149.1 90.2,148.6 93.6,148.1 97.0,147.6 100.4,147.1 103.8,146.6 107.2,146.1 110.6,145.6 114.0,145.1 117.4,144.5 120.8,144.0 124.2,143.5 127.6,143.0 131.0,142.5 134.4,142.0 137.8,141.5 141.2,141.0 144.6,140.5 148.0,140.0 151.4,139.4 154.8,138.9 158.2,138.4 161.6,137.9 165.0,137.4 168.4,136.9 171.8,136.4 175.2,135.9 178.6,135.4 182.0,134.8 185.4,134.3 188.8,133.8 192.2,133.3 195.6,132.8 199.0,132.3 202.4,131.8 205.8,131.3 209.2,130.8 212.6,130.3 216.0,129.7 219.4,129.2 222.8,128.7 226.2,128.2 229.6,127.7 233.0,127.2 236.4,126.7 239.8,126.2 243.2,125.7 246.6,125.2 250.0,124.6 253.4,124.1 256.8,123.6 260.2,123.1 263.6,122.6 267.0,122.1 270.4,121.6 273.8,121.1 277.2,120.6 280.6,120.0 284.0,119.5 287.4,119.0 290.8,118.5 294.2,118.0 297.6,117.5 301.0,117.0 304.4,116.5 307.8,116.0 311.2,115.5 314.6,114.9 318.0,114.4 321.4,113.9 324.8,113.4 328.2,112.9 331.6,112.4 335.0,111.9 338.4,111.4 341.8,110.9 345.2,110.4 348.6,109.9 352.0,109.4 355.4,108.9 358.8,108.4 362.2,107.9 365.6,107.4 369.0,106.9 372.4,106.4 375.8,105.9 379.2,105.4 382.6,104.9 386.0,104.4 389.4,104.0 392.8,103.5 396.2,103.0 399.6,102.5 403.0,102.0 406.4,101.5 409.8,101.0 413.2,100.5 416.6,100.0 420.0,99.5 423.4,99.0 426.8,98.5 430.2,98.0 433.6,97.5 437.0,97.0 440.4,96.5 443.8,96.0 447.2,95.5 450.6,95.0 454.0,94.5 457.4,94.0 460.8,93.5 464.2,93.0 467.6,92.5 471.0,92.1 474.4,91.6 477.8,91.1 481.2,90.6 484.6,90.1 488.0,89.6 491.4,89.1 494.8,88.6 498.2,88.1 501.6,87.6 505.0,87.1 508.4,86.6 511.8,86.1 515.2,85.6 518.6,85.1 522.0,84.6 525.4,84.1 528.8,83.6 532.2,83.1 535.6,82.6 539.0,82.1 542.4,81.6 545.8,81.1 549.2,80.7 552.6,80.2 556.0,79.7 559.4,79.2 562.8,78.7 566.2,78.2 569.6,77.7 573.0,77.2 576.4,76.7 579.8,76.2 583.2,75.7 586.6,75.2" class="l1"/>
<circle cx="165.0" cy="137.4" r="3.2" class="pt"/>
<circle cx="335.0" cy="111.9" r="3.2" class="pt"/>
<circle cx="505.0" cy="87.1" r="3.2" class="pt"/>
<text x="88.0" y="51.0" text-anchor="start" class="sub">input x(p) across three tiles; dots = tile centres where μ̂ = μ⁽ᵏ⁾</text>
<text x="598.0" y="101.1" text-anchor="start" class="c2" font-size="11">μ⁽ᵏ⁾ per tile</text>
<text x="598.0" y="76.8" text-anchor="start" class="c1" font-size="11">μ̂(p) interp.</text>
<text x="598.0" y="124.6" text-anchor="start" class="lab">x(p)</text>
<polyline points="80.0,252.2 80.6,251.6 81.1,251.0 81.7,250.4 82.3,249.8 82.8,249.2 83.4,248.6 84.0,248.0 84.5,247.5 85.1,247.0 85.7,246.5 86.2,246.1 86.8,245.7 87.4,245.3 87.9,245.0 88.5,244.7 89.1,244.5 89.6,244.3 90.2,244.1 90.8,244.0 91.3,244.0 91.9,244.0 92.5,244.0 93.0,244.1 93.6,244.2 94.2,244.3 94.7,244.5 95.3,244.7 95.9,245.0 96.4,245.3 97.0,245.6 97.6,245.9 98.1,246.3 98.7,246.6 99.3,247.0 99.8,247.4 100.4,247.8 101.0,248.2 101.5,248.5 102.1,248.9 102.7,249.2 103.2,249.6 103.8,249.9 104.4,250.1 104.9,250.4 105.5,250.6 106.1,250.8 106.6,250.9 107.2,251.0 107.8,251.1 108.3,251.1 108.9,251.0 109.5,251.0 110.0,250.8 110.6,250.6 111.2,250.4 111.7,250.1 112.3,249.8 112.9,249.4 113.4,249.0 114.0,248.5 114.6,248.0 115.1,247.5 115.7,246.9 116.3,246.3 116.8,245.7 117.4,245.0 118.0,244.4 118.5,243.7 119.1,243.0 119.7,242.3 120.2,241.6 120.8,240.9 121.4,240.2 121.9,239.5 122.5,238.9 123.1,238.2 123.6,237.6 124.2,237.0 124.8,236.5 125.3,236.0 125.9,235.5 126.5,235.0 127.0,234.7 127.6,234.3 128.2,234.0 128.7,233.8 129.3,233.6 129.9,233.5 130.4,233.4 131.0,233.3 131.6,233.4 132.1,233.4 132.7,233.5 133.3,233.7 133.8,233.9 134.4,234.2 135.0,234.5 135.5,234.8 136.1,235.1 136.7,235.5 137.2,235.9 137.8,236.4 138.4,236.8 138.9,237.3 139.5,237.7 140.1,238.2 140.6,238.7 141.2,239.1 141.8,239.5 142.3,240.0 142.9,240.3 143.5,240.7 144.0,241.0 144.6,241.3 145.2,241.6 145.7,241.8 146.3,242.0 146.9,242.1 147.4,242.2 148.0,242.2 148.6,242.1 149.1,242.0 149.7,241.9 150.3,241.7 150.8,241.4 151.4,241.1 152.0,240.7 152.5,240.3 153.1,239.8 153.7,239.3 154.2,238.8 154.8,238.2 155.4,237.5 155.9,236.8 156.5,236.1 157.1,235.4 157.6,234.6 158.2,233.9 158.8,233.1 159.3,232.3 159.9,231.5 160.5,230.8 161.0,230.0 161.6,229.3 162.2,228.5 162.7,227.8 163.3,227.1 163.9,226.5 164.4,225.9 165.0,225.4 165.6,224.8 166.1,224.4 166.7,224.0 167.3,223.6 167.8,223.3 168.4,223.1 169.0,222.9 169.5,222.8 170.1,222.7 170.7,222.7 171.2,222.8 171.8,222.9 172.4,223.0 172.9,223.3 173.5,223.5 174.1,223.9 174.6,224.2 175.2,224.6 175.8,225.0 176.3,225.5 176.9,226.0 177.5,226.5 178.0,227.0 178.6,227.6 179.2,228.1 179.7,228.7 180.3,229.2 180.9,229.7 181.4,230.2 182.0,230.7 182.6,231.2 183.1,231.6 183.7,232.0 184.3,232.3 184.8,232.6 185.4,232.8 186.0,233.0 186.5,233.2 187.1,233.3 187.7,233.3 188.2,233.2 188.8,233.1 189.4,233.0 189.9,232.7 190.5,232.4 191.1,232.1 191.6,231.7 192.2,231.2 192.8,230.7 193.3,230.1 193.9,229.5 194.5,228.8 195.0,228.1 195.6,227.3 196.2,226.5 196.7,225.7 197.3,224.9 197.9,224.0 198.4,223.2 199.0,222.3 199.6,221.5 200.1,220.6 200.7,219.8 201.3,218.9 201.8,218.2 202.4,217.4 203.0,216.7 203.5,216.0 204.1,215.3 204.7,214.7 205.2,214.2 205.8,213.7 206.4,213.3 206.9,212.9 207.5,212.6 208.1,212.4 208.6,212.2 209.2,212.1 209.8,212.1 210.3,212.1 210.9,212.2 211.5,212.3 212.0,212.6 212.6,212.8 213.2,213.2 213.7,213.6 214.3,214.0 214.9,214.5 215.4,215.0 216.0,215.5 216.6,216.1 217.1,216.7 217.7,217.3 218.3,217.9 218.8,218.5 219.4,219.2 220.0,219.8 220.5,220.4 221.1,220.9 221.7,221.5 222.2,222.0 222.8,222.5 223.4,222.9 223.9,223.3 224.5,223.6 225.1,223.9 225.6,224.1 226.2,224.3 226.8,224.4 227.3,224.4 227.9,224.3 228.5,224.2 229.0,224.0 229.6,223.8 230.2,223.4 230.7,223.0 231.3,222.6 231.9,222.1 232.4,221.5 233.0,220.8 233.6,220.1 234.1,219.4 234.7,218.6 235.3,217.8 235.8,216.9 236.4,216.0 237.0,215.1 237.5,214.2 238.1,213.2 238.7,212.3 239.2,211.3 239.8,210.4 240.4,209.5 240.9,208.6 241.5,207.7 242.1,206.9 242.6,206.1 243.2,205.4 243.8,204.7 244.3,204.1 244.9,203.5 245.5,203.0 246.0,202.6 246.6,202.2 247.2,201.9 247.7,201.7 248.3,201.5 248.9,201.4 249.4,201.4" class="l2" stroke-width="1.5"/>
<polyline points="250.0,241.9 250.6,242.0 251.1,242.2 251.7,242.4 252.3,242.7 252.8,243.1 253.4,243.5 254.0,243.9 254.5,244.4 255.1,244.9 255.7,245.4 256.2,246.0 256.8,246.6 257.4,247.2 257.9,247.8 258.5,248.4 259.1,249.0 259.6,249.6 260.2,250.2 260.8,250.8 261.3,251.3 261.9,251.8 262.5,252.2 263.0,252.7 263.6,253.0 264.2,253.4 264.7,253.6 265.3,253.8 265.9,254.0 266.4,254.1 267.0,254.1 267.6,254.0 268.1,253.9 268.7,253.7 269.3,253.5 269.8,253.1 270.4,252.8 271.0,252.3 271.5,251.8 272.1,251.2 272.7,250.6 273.2,250.0 273.8,249.2 274.4,248.5 274.9,247.7 275.5,246.9 276.1,246.0 276.6,245.2 277.2,244.3 277.8,243.4 278.3,242.5 278.9,241.6 279.5,240.7 280.0,239.9 280.6,239.1 281.2,238.3 281.7,237.5 282.3,236.8 282.9,236.1 283.4,235.5 284.0,234.9 284.6,234.4 285.1,233.9 285.7,233.5 286.3,233.2 286.8,232.9 287.4,232.7 288.0,232.6 288.5,232.6 289.1,232.6 289.7,232.7 290.2,232.8 290.8,233.1 291.4,233.4 291.9,233.7 292.5,234.1 293.1,234.6 293.6,235.1 294.2,235.6 294.8,236.2 295.3,236.8 295.9,237.5 296.5,238.1 297.0,238.8 297.6,239.5 298.2,240.1 298.7,240.8 299.3,241.5 299.9,242.1 300.4,242.7 301.0,243.3 301.6,243.9 302.1,244.4 302.7,244.8 303.3,245.2 303.8,245.6 304.4,245.9 305.0,246.1 305.5,246.2 306.1,246.3 306.7,246.3 307.2,246.3 307.8,246.1 308.4,245.9 308.9,245.6 309.5,245.3 310.1,244.9 310.6,244.4 311.2,243.8 311.8,243.2 312.3,242.5 312.9,241.8 313.5,241.0 314.0,240.2 314.6,239.3 315.2,238.4 315.7,237.5 316.3,236.6 316.9,235.6 317.4,234.6 318.0,233.7 318.6,232.7 319.1,231.8 319.7,230.9 320.3,230.0 320.8,229.2 321.4,228.3 322.0,227.6 322.5,226.9 323.1,226.2 323.7,225.6 324.2,225.0 324.8,224.6 325.4,224.2 325.9,223.9 326.5,223.6 327.1,223.4 327.6,223.3 328.2,223.3 328.8,223.4 329.3,223.5 329.9,223.7 330.5,224.0 331.0,224.3 331.6,224.7 332.2,225.2 332.7,225.7 333.3,226.3 333.9,226.9 334.4,227.5 335.0,228.2 335.6,228.9 336.1,229.7 336.7,230.4 337.3,231.2 337.8,231.9 338.4,232.6 339.0,233.4 339.5,234.1 340.1,234.7 340.7,235.4 341.2,236.0 341.8,236.5 342.4,237.0 342.9,237.4 343.5,237.8 344.1,238.1 344.6,238.3 345.2,238.5 345.8,238.6 346.3,238.6 346.9,238.5 347.5,238.4 348.0,238.1 348.6,237.8 349.2,237.4 349.7,236.9 350.3,236.4 350.9,235.8 351.4,235.1 352.0,234.4 352.6,233.6 353.1,232.7 353.7,231.8 354.3,230.9 354.8,229.9 355.4,228.9 356.0,227.9 356.5,226.9 357.1,225.9 357.7,224.9 358.2,223.8 358.8,222.8 359.4,221.9 359.9,220.9 360.5,220.0 361.1,219.2 361.6,218.4 362.2,217.6 362.8,216.9 363.3,216.3 363.9,215.7 364.5,215.3 365.0,214.8 365.6,214.5 366.2,214.3 366.7,214.1 367.3,214.0 367.9,214.1 368.4,214.1 369.0,214.3 369.6,214.6 370.1,214.9 370.7,215.3 371.3,215.7 371.8,216.3 372.4,216.9 373.0,217.5 373.5,218.2 374.1,218.9 374.7,219.7 375.2,220.4 375.8,221.3 376.4,222.1 376.9,222.9 377.5,223.7 378.1,224.5 378.6,225.3 379.2,226.1 379.8,226.8 380.3,227.5 380.9,228.1 381.5,228.7 382.0,229.2 382.6,229.7 383.2,230.1 383.7,230.4 384.3,230.6 384.9,230.8 385.4,230.9 386.0,230.8 386.6,230.8 387.1,230.6 387.7,230.3 388.3,230.0 388.8,229.5 389.4,229.0 390.0,228.4 390.5,227.7 391.1,227.0 391.7,226.2 392.2,225.3 392.8,224.4 393.4,223.5 393.9,222.5 394.5,221.4 395.1,220.4 395.6,219.3 396.2,218.2 396.8,217.1 397.3,216.0 397.9,214.9 398.5,213.8 399.0,212.8 399.6,211.8 400.2,210.9 400.7,210.0 401.3,209.1 401.9,208.3 402.4,207.6 403.0,207.0 403.6,206.4 404.1,205.9 404.7,205.5 405.3,205.2 405.8,205.0 406.4,204.8 407.0,204.8 407.5,204.8 408.1,204.9 408.7,205.2 409.2,205.4 409.8,205.8 410.4,206.3 410.9,206.8 411.5,207.4 412.1,208.0 412.6,208.8 413.2,209.5 413.8,210.3 414.3,211.1 414.9,212.0 415.5,212.9 416.0,213.8 416.6,214.6 417.2,215.5 417.7,216.4 418.3,217.2 418.9,218.1 419.4,218.8" class="l2" stroke-width="1.5"/>
<polyline points="420.0,253.6 420.6,254.2 421.1,254.8 421.7,255.3 422.3,255.8 422.8,256.1 423.4,256.4 424.0,256.7 424.5,256.8 425.1,256.9 425.7,256.9 426.2,256.8 426.8,256.6 427.4,256.3 427.9,255.9 428.5,255.5 429.1,254.9 429.6,254.3 430.2,253.7 430.8,252.9 431.3,252.1 431.9,251.2 432.5,250.3 433.0,249.3 433.6,248.3 434.2,247.3 434.7,246.2 435.3,245.1 435.9,244.0 436.4,243.0 437.0,241.9 437.6,240.8 438.1,239.8 438.7,238.7 439.3,237.8 439.8,236.8 440.4,235.9 441.0,235.1 441.5,234.3 442.1,233.6 442.7,233.0 443.2,232.5 443.8,232.0 444.4,231.6 444.9,231.4 445.5,231.2 446.1,231.0 446.6,231.0 447.2,231.1 447.8,231.2 448.3,231.5 448.9,231.8 449.5,232.2 450.0,232.7 450.6,233.2 451.2,233.9 451.7,234.5 452.3,235.3 452.9,236.0 453.4,236.9 454.0,237.7 454.6,238.6 455.1,239.5 455.7,240.4 456.3,241.3 456.8,242.1 457.4,243.0 458.0,243.9 458.5,244.7 459.1,245.5 459.7,246.2 460.2,246.9 460.8,247.5 461.4,248.0 461.9,248.5 462.5,248.9 463.1,249.2 463.6,249.5 464.2,249.6 464.8,249.7 465.3,249.6 465.9,249.5 466.5,249.3 467.0,249.0 467.6,248.6 468.2,248.1 468.7,247.5 469.3,246.8 469.9,246.1 470.4,245.3 471.0,244.4 471.6,243.5 472.1,242.5 472.7,241.4 473.3,240.4 473.8,239.3 474.4,238.1 475.0,237.0 475.5,235.8 476.1,234.7 476.7,233.5 477.2,232.4 477.8,231.3 478.4,230.2 478.9,229.2 479.5,228.2 480.1,227.3 480.6,226.4 481.2,225.6 481.8,224.9 482.3,224.3 482.9,223.7 483.5,223.3 484.0,222.9 484.6,222.6 485.2,222.4 485.7,222.4 486.3,222.4 486.9,222.5 487.4,222.7 488.0,222.9 488.6,223.3 489.1,223.8 489.7,224.3 490.3,224.9 490.8,225.6 491.4,226.3 492.0,227.1 492.5,228.0 493.1,228.9 493.7,229.8 494.2,230.7 494.8,231.7 495.4,232.6 495.9,233.6 496.5,234.5 497.1,235.5 497.6,236.4 498.2,237.2 498.8,238.1 499.3,238.8 499.9,239.5 500.5,240.2 501.0,240.8 501.6,241.3 502.2,241.7 502.7,242.0 503.3,242.2 503.9,242.4 504.4,242.4 505.0,242.4 505.6,242.2 506.1,242.0 506.7,241.6 507.3,241.2 507.8,240.6 508.4,240.0 509.0,239.3 509.5,238.5 510.1,237.6 510.7,236.7 511.2,235.7 511.8,234.6 512.4,233.5 512.9,232.4 513.5,231.2 514.1,230.0 514.6,228.8 515.2,227.5 515.8,226.3 516.3,225.1 516.9,223.9 517.5,222.8 518.0,221.7 518.6,220.6 519.2,219.6 519.7,218.6 520.3,217.7 520.9,216.9 521.4,216.2 522.0,215.5 522.6,215.0 523.1,214.5 523.7,214.2 524.3,213.9 524.8,213.7 525.4,213.7 526.0,213.7 526.5,213.8 527.1,214.1 527.7,214.4 528.2,214.8 528.8,215.3 529.4,215.9 529.9,216.6 530.5,217.4 531.1,218.2 531.6,219.0 532.2,219.9 532.8,220.9 533.3,221.9 533.9,222.9 534.5,223.9 535.0,224.9 535.6,226.0 536.2,227.0 536.7,228.0 537.3,228.9 537.9,229.8 538.4,230.7 539.0,231.5 539.6,232.3 540.1,232.9 540.7,233.5 541.3,234.0 541.8,234.5 542.4,234.8 543.0,235.0 543.5,235.1 544.1,235.2 544.7,235.1 545.2,234.9 545.8,234.6 546.4,234.2 546.9,233.8 547.5,233.2 548.1,232.5 548.6,231.7 549.2,230.9 549.8,229.9 550.3,228.9 550.9,227.9 551.5,226.7 552.0,225.6 552.6,224.3 553.2,223.1 553.7,221.8 554.3,220.5 554.9,219.2 555.4,218.0 556.0,216.7 556.6,215.5 557.1,214.2 557.7,213.1 558.3,212.0 558.8,210.9 559.4,209.9 560.0,209.0 560.5,208.2 561.1,207.4 561.7,206.8 562.2,206.2 562.8,205.8 563.4,205.4 563.9,205.2 564.5,205.0 565.1,205.0 565.6,205.1 566.2,205.2 566.8,205.5 567.3,205.9 567.9,206.4 568.5,206.9 569.0,207.6 569.6,208.3 570.2,209.1 570.7,210.0 571.3,211.0 571.9,211.9 572.4,213.0 573.0,214.0 573.6,215.1 574.1,216.2 574.7,217.3 575.3,218.4 575.8,219.4 576.4,220.5 577.0,221.5 577.5,222.4 578.1,223.4 578.7,224.2 579.2,225.0 579.8,225.7 580.4,226.3 580.9,226.8 581.5,227.2 582.1,227.6 582.6,227.8 583.2,227.9 583.8,227.9 584.3,227.8 584.9,227.6 585.5,227.3 586.0,226.9 586.6,226.3 587.2,225.7 587.7,225.0 588.3,224.1 588.9,223.2 589.4,222.2" class="l2" stroke-width="1.5"/>
<polyline points="80.0,343.2 80.6,342.7 81.1,342.2 81.7,341.7 82.3,341.2 82.8,340.7 83.4,340.2 84.0,339.8 84.5,339.4 85.1,339.0 85.7,338.6 86.2,338.3 86.8,338.0 87.4,337.8 87.9,337.6 88.5,337.4 89.1,337.3 89.6,337.3 90.2,337.3 90.8,337.3 91.3,337.4 91.9,337.5 92.5,337.7 93.0,338.0 93.6,338.2 94.2,338.5 94.7,338.9 95.3,339.3 95.9,339.7 96.4,340.2 97.0,340.6 97.6,341.1 98.1,341.7 98.7,342.2 99.3,342.7 99.8,343.3 100.4,343.9 101.0,344.4 101.5,344.9 102.1,345.5 102.7,346.0 103.2,346.5 103.8,346.9 104.4,347.4 104.9,347.8 105.5,348.2 106.1,348.5 106.6,348.8 107.2,349.0 107.8,349.2 108.3,349.4 108.9,349.5 109.5,349.5 110.0,349.5 110.6,349.5 111.2,349.4 111.7,349.2 112.3,349.0 112.9,348.8 113.4,348.5 114.0,348.2 114.6,347.8 115.1,347.4 115.7,346.9 116.3,346.4 116.8,345.9 117.4,345.4 118.0,344.8 118.5,344.3 119.1,343.7 119.7,343.1 120.2,342.5 120.8,341.9 121.4,341.4 121.9,340.8 122.5,340.3 123.1,339.7 123.6,339.2 124.2,338.8 124.8,338.4 125.3,338.0 125.9,337.6 126.5,337.3 127.0,337.1 127.6,336.9 128.2,336.7 128.7,336.6 129.3,336.6 129.9,336.6 130.4,336.6 131.0,336.7 131.6,336.9 132.1,337.1 132.7,337.4 133.3,337.7 133.8,338.1 134.4,338.5 135.0,338.9 135.5,339.4 136.1,339.9 136.7,340.5 137.2,341.0 137.8,341.6 138.4,342.2 138.9,342.8 139.5,343.4 140.1,344.1 140.6,344.7 141.2,345.3 141.8,345.9 142.3,346.4 142.9,347.0 143.5,347.5 144.0,347.9 144.6,348.4 145.2,348.8 145.7,349.1 146.3,349.5 146.9,349.7 147.4,349.9 148.0,350.1 148.6,350.2 149.1,350.2 149.7,350.2 150.3,350.1 150.8,350.0 151.4,349.8 152.0,349.6 152.5,349.3 153.1,349.0 153.7,348.6 154.2,348.1 154.8,347.7 155.4,347.2 155.9,346.6 156.5,346.1 157.1,345.5 157.6,344.8 158.2,344.2 158.8,343.6 159.3,342.9 159.9,342.3 160.5,341.6 161.0,341.0 161.6,340.4 162.2,339.8 162.7,339.3 163.3,338.7 163.9,338.2 164.4,337.8 165.0,337.4 165.6,337.0 166.1,336.7 166.7,336.4 167.3,336.2 167.8,336.0 168.4,335.9 169.0,335.9 169.5,335.9 170.1,336.0 170.7,336.1 171.2,336.3 171.8,336.6 172.4,336.9 172.9,337.3 173.5,337.7 174.1,338.1 174.6,338.6 175.2,339.2 175.8,339.7 176.3,340.3 176.9,341.0 177.5,341.6 178.0,342.3 178.6,342.9 179.2,343.6 179.7,344.3 180.3,344.9 180.9,345.6 181.4,346.2 182.0,346.8 182.6,347.4 183.1,348.0 183.7,348.5 184.3,349.0 184.8,349.4 185.4,349.8 186.0,350.1 186.5,350.4 187.1,350.6 187.7,350.7 188.2,350.8 188.8,350.9 189.4,350.8 189.9,350.7 190.5,350.6 191.1,350.4 191.6,350.1 192.2,349.8 192.8,349.4 193.3,348.9 193.9,348.5 194.5,347.9 195.0,347.4 195.6,346.8 196.2,346.1 196.7,345.5 197.3,344.8 197.9,344.1 198.4,343.4 199.0,342.7 199.6,342.0 200.1,341.3 200.7,340.7 201.3,340.0 201.8,339.4 202.4,338.8 203.0,338.2 203.5,337.7 204.1,337.2 204.7,336.8 205.2,336.4 205.8,336.0 206.4,335.8 206.9,335.5 207.5,335.4 208.1,335.3 208.6,335.3 209.2,335.3 209.8,335.4 210.3,335.6 210.9,335.8 211.5,336.1 212.0,336.5 212.6,336.9 213.2,337.3 213.7,337.8 214.3,338.4 214.9,339.0 215.4,339.6 216.0,340.3 216.6,340.9 217.1,341.6 217.7,342.4 218.3,343.1 218.8,343.8 219.4,344.5 220.0,345.2 220.5,345.9 221.1,346.6 221.7,347.3 222.2,347.9 222.8,348.5 223.4,349.0 223.9,349.5 224.5,350.0 225.1,350.4 225.6,350.7 226.2,351.0 226.8,351.2 227.3,351.3 227.9,351.4 228.5,351.4 229.0,351.4 229.6,351.3 230.2,351.1 230.7,350.8 231.3,350.5 231.9,350.2 232.4,349.7 233.0,349.3 233.6,348.7 234.1,348.2 234.7,347.5 235.3,346.9 235.8,346.2 236.4,345.5 237.0,344.8 237.5,344.0 238.1,343.3 238.7,342.5 239.2,341.8 239.8,341.0 240.4,340.3 240.9,339.6 241.5,338.9 242.1,338.3 242.6,337.7 243.2,337.1 243.8,336.6 244.3,336.2 244.9,335.8 245.5,335.4 246.0,335.2 246.6,334.9 247.2,334.8 247.7,334.7 248.3,334.7 248.9,334.8 249.4,334.9 250.0,335.1 250.6,335.4 251.1,335.7 251.7,336.1 252.3,336.5 252.8,337.0 253.4,337.6 254.0,338.2 254.5,338.8 255.1,339.5 255.7,340.2 256.2,340.9 256.8,341.7 257.4,342.5 257.9,343.2 258.5,344.0 259.1,344.8 259.6,345.6 260.2,346.3 260.8,347.0 261.3,347.7 261.9,348.4 262.5,349.0 263.0,349.5 263.6,350.1 264.2,350.5 264.7,350.9 265.3,351.3 265.9,351.6 266.4,351.8 267.0,351.9 267.6,352.0 268.1,352.0 268.7,351.9 269.3,351.8 269.8,351.6 270.4,351.3 271.0,350.9 271.5,350.5 272.1,350.1 272.7,349.5 273.2,348.9 273.8,348.3 274.4,347.7 274.9,347.0 275.5,346.2 276.1,345.5 276.6,344.7 277.2,343.9 277.8,343.1 278.3,342.3 278.9,341.5 279.5,340.7 280.0,339.9 280.6,339.2 281.2,338.5 281.7,337.8 282.3,337.2 282.9,336.6 283.4,336.1 284.0,335.6 284.6,335.2 285.1,334.9 285.7,334.6 286.3,334.4 286.8,334.2 287.4,334.2 288.0,334.2 288.5,334.3 289.1,334.4 289.7,334.6 290.2,334.9 290.8,335.3 291.4,335.7 291.9,336.2 292.5,336.8 293.1,337.4 293.6,338.0 294.2,338.7 294.8,339.4 295.3,340.2 295.9,341.0 296.5,341.8 297.0,342.6 297.6,343.4 298.2,344.3 298.7,345.1 299.3,345.9 299.9,346.7 300.4,347.4 301.0,348.1 301.6,348.8 302.1,349.5 302.7,350.1 303.3,350.6 303.8,351.1 304.4,351.5 305.0,351.8 305.5,352.1 306.1,352.3 306.7,352.4 307.2,352.5 307.8,352.5 308.4,352.4 308.9,352.2 309.5,352.0 310.1,351.7 310.6,351.3 311.2,350.8 311.8,350.3 312.3,349.8 312.9,349.1 313.5,348.5 314.0,347.7 314.6,347.0 315.2,346.2 315.7,345.4 316.3,344.6 316.9,343.7 317.4,342.9 318.0,342.0 318.6,341.2 319.1,340.4 319.7,339.6 320.3,338.8 320.8,338.1 321.4,337.4 322.0,336.7 322.5,336.1 323.1,335.6 323.7,335.1 324.2,334.7 324.8,334.3 325.4,334.0 325.9,333.8 326.5,333.7 327.1,333.7 327.6,333.7 328.2,333.8 328.8,334.0 329.3,334.2 329.9,334.6 330.5,335.0 331.0,335.4 331.6,336.0 332.2,336.6 332.7,337.2 333.3,337.9 333.9,338.6 334.4,339.4 335.0,340.2 335.6,341.1 336.1,341.9 336.7,342.8 337.3,343.6 337.8,344.5 338.4,345.4 339.0,346.2 339.5,347.0 340.1,347.8 340.7,348.5 341.2,349.3 341.8,349.9 342.4,350.5 342.9,351.1 343.5,351.6 344.1,352.0 344.6,352.3 345.2,352.6 345.8,352.8 346.3,352.9 346.9,353.0 347.5,352.9 348.0,352.8 348.6,352.6 349.2,352.3 349.7,352.0 350.3,351.5 350.9,351.1 351.4,350.5 352.0,349.9 352.6,349.2 353.1,348.5 353.7,347.7 354.3,346.9 354.8,346.1 355.4,345.2 356.0,344.3 356.5,343.4 357.1,342.5 357.7,341.6 358.2,340.7 358.8,339.8 359.4,339.0 359.9,338.2 360.5,337.4 361.1,336.7 361.6,336.0 362.2,335.4 362.8,334.8 363.3,334.3 363.9,333.9 364.5,333.5 365.0,333.2 365.6,333.0 366.2,332.9 366.7,332.9 367.3,332.9 367.9,333.1 368.4,333.3 369.0,333.5 369.6,333.9 370.1,334.3 370.7,334.9 371.3,335.4 371.8,336.1 372.4,336.8 373.0,337.5 373.5,338.3 374.1,339.1 374.7,340.0 375.2,340.9 375.8,341.8 376.4,342.7 376.9,343.6 377.5,344.6 378.1,345.5 378.6,346.3 379.2,347.2 379.8,348.0 380.3,348.8 380.9,349.6 381.5,350.3 382.0,350.9 382.6,351.5 383.2,352.0 383.7,352.4 384.3,352.7 384.9,353.0 385.4,353.2 386.0,353.3 386.6,353.3 387.1,353.3 387.7,353.1 388.3,352.9 388.8,352.6 389.4,352.2 390.0,351.7 390.5,351.2 391.1,350.6 391.7,349.9 392.2,349.2 392.8,348.4 393.4,347.6 393.9,346.7 394.5,345.8 395.1,344.9 395.6,343.9 396.2,343.0 396.8,342.0 397.3,341.1 397.9,340.1 398.5,339.2 399.0,338.3 399.6,337.5 400.2,336.7 400.7,335.9 401.3,335.2 401.9,334.5 402.4,333.9 403.0,333.4 403.6,333.0 404.1,332.6 404.7,332.4 405.3,332.2 405.8,332.1 406.4,332.1 407.0,332.1 407.5,332.3 408.1,332.5 408.7,332.8 409.2,333.2 409.8,333.7 410.4,334.3 410.9,334.9 411.5,335.6 412.1,336.3 412.6,337.2 413.2,338.0 413.8,338.9 414.3,339.8 414.9,340.8 415.5,341.7 416.0,342.7 416.6,343.7 417.2,344.6 417.7,345.6 418.3,346.5 418.9,347.4 419.4,348.3 420.0,349.1 420.6,349.9 421.1,350.6 421.7,351.3 422.3,351.8 422.8,352.3 423.4,352.8 424.0,353.1 424.5,353.4 425.1,353.6 425.7,353.7 426.2,353.7 426.8,353.6 427.4,353.4 427.9,353.1 428.5,352.8 429.1,352.4 429.6,351.8 430.2,351.3 430.8,350.6 431.3,349.9 431.9,349.1 432.5,348.3 433.0,347.4 433.6,346.5 434.2,345.5 434.7,344.5 435.3,343.5 435.9,342.5 436.4,341.5 437.0,340.5 437.6,339.5 438.1,338.6 438.7,337.6 439.3,336.7 439.8,335.9 440.4,335.1 441.0,334.4 441.5,333.7 442.1,333.1 442.7,332.6 443.2,332.1 443.8,331.8 444.4,331.5 444.9,331.3 445.5,331.3 446.1,331.3 446.6,331.4 447.2,331.5 447.8,331.8 448.3,332.2 448.9,332.6 449.5,333.1 450.0,333.8 450.6,334.4 451.2,335.2 451.7,336.0 452.3,336.8 452.9,337.7 453.4,338.7 454.0,339.7 454.6,340.7 455.1,341.7 455.7,342.7 456.3,343.7 456.8,344.8 457.4,345.8 458.0,346.7 458.5,347.7 459.1,348.6 459.7,349.4 460.2,350.2 460.8,351.0 461.4,351.6 461.9,352.2 462.5,352.7 463.1,353.2 463.6,353.5 464.2,353.8 464.8,353.9 465.3,354.0 465.9,354.0 466.5,353.9 467.0,353.7 467.6,353.4 468.2,353.0 468.7,352.5 469.3,352.0 469.9,351.3 470.4,350.6 471.0,349.8 471.6,349.0 472.1,348.1 472.7,347.2 473.3,346.2 473.8,345.2 474.4,344.1 475.0,343.1 475.5,342.0 476.1,341.0 476.7,339.9 477.2,338.9 477.8,337.9 478.4,336.9 478.9,336.0 479.5,335.1 480.1,334.3 480.6,333.6 481.2,332.9 481.8,332.3 482.3,331.8 482.9,331.3 483.5,331.0 484.0,330.7 484.6,330.5 485.2,330.5 485.7,330.5 486.3,330.6 486.9,330.8 487.4,331.1 488.0,331.5 488.6,332.0 489.1,332.6 489.7,333.3 490.3,334.0 490.8,334.8 491.4,335.6 492.0,336.6 492.5,337.5 493.1,338.5 493.7,339.5 494.2,340.6 494.8,341.7 495.4,342.7 495.9,343.8 496.5,344.9 497.1,345.9 497.6,346.9 498.2,347.9 498.8,348.9 499.3,349.7 499.9,350.6 500.5,351.3 501.0,352.0 501.6,352.6 502.2,353.1 502.7,353.6 503.3,353.9 503.9,354.2 504.4,354.3 505.0,354.4 505.6,354.3 506.1,354.2 506.7,353.9 507.3,353.6 507.8,353.2 508.4,352.6 509.0,352.0 509.5,351.4 510.1,350.6 510.7,349.8 511.2,348.9 511.8,347.9 512.4,346.9 512.9,345.9 513.5,344.8 514.1,343.8 514.6,342.7 515.2,341.5 515.8,340.4 516.3,339.4 516.9,338.3 517.5,337.2 518.0,336.2 518.6,335.3 519.2,334.4 519.7,333.5 520.3,332.8 520.9,332.1 521.4,331.5 522.0,330.9 522.6,330.5 523.1,330.2 523.7,329.9 524.3,329.8 524.8,329.7 525.4,329.8 526.0,329.9 526.5,330.2 527.1,330.5 527.7,330.9 528.2,331.5 528.8,332.1 529.4,332.8 529.9,333.6 530.5,334.4 531.1,335.3 531.6,336.3 532.2,337.3 532.8,338.4 533.3,339.5 533.9,340.6 534.5,341.7 535.0,342.8 535.6,343.9 536.2,345.0 536.7,346.1 537.3,347.2 537.9,348.2 538.4,349.2 539.0,350.1 539.6,350.9 540.1,351.7 540.7,352.4 541.3,353.0 541.8,353.5 542.4,353.9 543.0,354.3 543.5,354.5 544.1,354.6 544.7,354.7 545.2,354.6 545.8,354.4 546.4,354.2 546.9,353.8 547.5,353.3 548.1,352.8 548.6,352.1 549.2,351.4 549.8,350.6 550.3,349.7 550.9,348.7 551.5,347.7 552.0,346.7 552.6,345.6 553.2,344.5 553.7,343.4 554.3,342.2 554.9,341.0 555.4,339.9 556.0,338.8 556.6,337.6 557.1,336.6 557.7,335.5 558.3,334.6 558.8,333.6 559.4,332.8 560.0,332.0 560.5,331.3 561.1,330.7 561.7,330.1 562.2,329.7 562.8,329.4 563.4,329.1 563.9,329.0 564.5,329.0 565.1,329.1 565.6,329.2 566.2,329.5 566.8,329.9 567.3,330.4 567.9,331.0 568.5,331.6 569.0,332.4 569.6,333.2 570.2,334.1 570.7,335.1 571.3,336.1 571.9,337.2 572.4,338.3 573.0,339.4 573.6,340.6 574.1,341.7 574.7,342.9 575.3,344.1 575.8,345.2 576.4,346.4 577.0,347.4 577.5,348.5 578.1,349.5 578.7,350.4 579.2,351.3 579.8,352.1 580.4,352.8 580.9,353.4 581.5,353.9 582.1,354.3 582.6,354.6 583.2,354.9 583.8,355.0 584.3,355.0 584.9,354.9 585.5,354.7 586.0,354.4 586.6,354.0 587.2,353.5 587.7,352.8 588.3,352.1 588.9,351.4 589.4,350.5" class="l1" stroke-width="1.5"/>
<text x="255.0" y="266.0" text-anchor="start" class="c2" font-size="11">jump 3.1</text>
<text x="425.0" y="266.0" text-anchor="start" class="c2" font-size="11">jump 2.7</text>
<text x="88.0" y="183.0" text-anchor="start" class="sub">instance norm, (x − μ⁽ᵏ⁾)/σ⁽ᵏ⁾: seams at tile borders</text>
<text x="88.0" y="295.0" text-anchor="start" class="sub">SC-UNSB, (x − μ̂(p))/σ̂(p): continuous across borders</text>
<text x="598.0" y="235.0" text-anchor="start" class="c2" font-size="11">per-tile</text>
<text x="598.0" y="347.0" text-anchor="start" class="c1" font-size="11">dense</text>
<text x="165.0" y="400.0" text-anchor="middle" class="lab">tile k=1</text>
<text x="335.0" y="400.0" text-anchor="middle" class="lab">tile k=2</text>
<text x="505.0" y="400.0" text-anchor="middle" class="lab">tile k=3</text>
<text x="72.0" y="400.0" text-anchor="end" class="lab">p →</text>
</svg>
